<?xml version="1.0" encoding="utf-8" ?>
<svg baseProfile="tiny" height="100%" version="1.2" width="100%" xmlns="http://www.w3.org/2000/svg" xmlns:ev="http://www.w3.org/2001/xml-events" xmlns:xlink="http://www.w3.org/1999/xlink"><defs /><text fill="blue" x="0.0" y="0.0" /><text fill="blue" x="0.0" y="792.0" /><text fill="blue" x="36.0" y="146.0" /><text fill="blue" x="36.0" y="146.0">* May include estimated US sales tax, VAT, GST and CT
</text><text fill="blue" x="36.0" y="146.0">** This is not a VAT invoice
</text><text fill="blue" x="36.0" y="146.0">*** Check the GST statement attached at the end of this Invoice
</text><text fill="blue" x="36.0" y="146.0">for details</text><text fill="blue" x="36.0" y="146.0">
</text><text fill="blue" x="36.0" y="146.0">† Usage and recurring charges for this statement period will be charged on
</text><text fill="blue" x="36.0" y="146.0">your next billing date. The amount of your actual charges for this statement
</text><text fill="blue" x="36.0" y="146.0">period may differ from the charges shown on this page. The charges
</text><text fill="blue" x="36.0" y="146.0">shown on this page do not include any additional usage charges accrued
</text><text fill="blue" x="36.0" y="146.0">during this statement period after the date you are viewing this page. Also,
</text><text fill="blue" x="36.0" y="146.0">one-time fees and subscription charges are assessed separately, on the
</text><text fill="blue" x="36.0" y="146.0">date that they occur.
</text><text fill="blue" x="36.0" y="146.0">All charges and prices are in US Dollars
</text><text fill="blue" x="36.0" y="146.0">All AWS Services are sold by Amazon Web Services, Inc.</text><text fill="blue" x="36.0" y="146.0" /><text fill="blue" x="276.0" y="146.0" /><text fill="blue" x="426.0" y="146.0" /><text fill="blue" x="426.0" y="146.0">Service Provider:
</text><text fill="blue" x="426.0" y="146.0">(Not to be used for payment remittance)</text><text fill="blue" x="426.0" y="146.0">
</text><text fill="blue" x="426.0" y="146.0">Amazon Web Services, Inc.
</text><text fill="blue" x="426.0" y="146.0">410 Terry Ave North
</text><text fill="blue" x="426.0" y="146.0">Seattle, WA  98109-5210, US</text><text fill="blue" x="426.0" y="146.0" /><text fill="blue" x="36.0" y="146.0">
</text><text fill="blue" x="36.0" y="146.0">1</text><text fill="blue" x="36.0" y="146.0" /><text fill="blue" x="36.0" y="756.0" /><text fill="blue" x="36.0" y="700.255001" /><text fill="blue" x="36.0" y="700.255001">
</text><text fill="blue" x="36.0" y="700.255001" /><text fill="blue" x="36.0" y="756.0">Account number:</text><text fill="blue" x="36.0" y="756.0">
</text><text fill="blue" x="36.0" y="756.0">296664039561</text><text fill="blue" x="36.0" y="756.0">
</text><text fill="blue" x="36.0" y="756.0">Bill to Address:</text><text fill="blue" x="36.0" y="756.0">
</text><text fill="blue" x="36.0" y="756.0">ATTN: iViveLabs Limited
</text><text fill="blue" x="36.0" y="756.0">93B Sai Yu Chung
</text><text fill="blue" x="36.0" y="756.0">Yuen Long, N.T., 0000, HK</text><text fill="blue" x="36.0" y="756.0" /><text fill="blue" x="252.0" y="756.0" /><text fill="blue" x="252.0" y="726.0" /><text fill="blue" x="252.0" y="726.0">Amazon Web Services Invoice</text><text fill="blue" x="252.0" y="726.0" /><text fill="blue" x="252.0" y="706.8" /><text fill="blue" x="476.0" y="706.8" /><text fill="blue" x="252.0" y="706.8" /><text fill="blue" x="252.0" y="706.8">
</text><text fill="blue" x="252.0" y="706.8">Email or talk to us about your AWS account or bill, visit aws.amazon.com/contact-us/</text><text fill="blue" x="252.0" y="706.8" /><text fill="blue" x="252.0" y="697.2" /><text fill="blue" x="476.0" y="697.2" /><text fill="blue" x="252.0" y="695.2" /><text fill="blue" x="252.0" y="695.2">
</text><text fill="blue" x="252.0" y="695.2">Invoice Summary</text><text fill="blue" x="252.0" y="695.2" /><text fill="blue" x="252.0" y="678.0" /><text fill="blue" x="252.0" y="678.0">
</text><text fill="blue" x="252.0" y="678.0">Invoice Number:</text><text fill="blue" x="252.0" y="678.0" /><text fill="blue" x="476.0" y="678.0" /><text fill="blue" x="476.0" y="678.0"> 42183017</text><text fill="blue" x="476.0" y="678.0" /><text fill="blue" x="252.0" y="663.4" /><text fill="blue" x="252.0" y="663.4">
</text><text fill="blue" x="252.0" y="663.4">Invoice Date:</text><text fill="blue" x="252.0" y="663.4" /><text fill="blue" x="476.0" y="663.4" /><text fill="blue" x="476.0" y="663.4"> August 3 , 2014</text><text fill="blue" x="476.0" y="663.4" /><text fill="blue" x="252.0" y="651.8" /><text fill="blue" x="252.0" y="651.8">
</text><text fill="blue" x="252.0" y="651.8">TOTAL AMOUNT DUE ON August 3 , 2014</text><text fill="blue" x="252.0" y="651.8" /><text fill="blue" x="476.0" y="651.8" /><text fill="blue" x="476.0" y="651.8"> $4.11</text><text fill="blue" x="476.0" y="651.8" /><text fill="blue" x="36.0" y="756.0">
</text><text fill="blue" x="36.0" y="756.0">This invoice is for the billing period July 1 - July 31 , 2014</text><text fill="blue" x="36.0" y="756.0">
</text><text fill="blue" x="36.0" y="756.0">Greetings from Amazon Web Services, we're writing to provide you with an electronic invoice for your use of AWS services. Additional information
</text><text fill="blue" x="36.0" y="756.0">regarding your bill, individual service charge details, and your account history are available on the Account Activity Page.</text><rect fill-opacity="0.05" height="18.248" stroke="red" width="539" x="0.5" y="237.001" /><text fill="blue" x="36.0" y="756.0" /><text fill="blue" x="36.5" y="519.999" /><text fill="blue" x="441.0" y="519.999" /><text fill="blue" x="36.5" y="518.999" /><text fill="blue" x="36.5" y="518.999">
</text><text fill="blue" x="36.5" y="518.999">Summary</text><text fill="blue" x="36.5" y="518.999" /><text fill="blue" x="36.5" y="500.751" /><text fill="blue" x="36.5" y="500.751">
</text><text fill="blue" x="36.5" y="500.751">AWS Service Charges</text><text fill="blue" x="36.5" y="500.751" /><text fill="blue" x="441.0" y="500.751" /><text fill="blue" x="441.0" y="500.751"> $4.11</text><text fill="blue" x="441.0" y="500.751" /><text fill="blue" x="36.5" y="482.251" /><text fill="blue" x="36.5" y="482.251">
</text><text fill="blue" x="36.5" y="482.251">Charges</text><text fill="blue" x="36.5" y="482.251" /><text fill="blue" x="441.0" y="482.251" /><text fill="blue" x="441.0" y="482.251"> $4.11</text><text fill="blue" x="441.0" y="482.251" /><text fill="blue" x="36.5" y="467.151" /><text fill="blue" x="36.5" y="467.151">
</text><text fill="blue" x="36.5" y="467.151">Credits</text><text fill="blue" x="36.5" y="467.151" /><text fill="blue" x="441.0" y="467.151" /><text fill="blue" x="441.0" y="467.151"> $0.00</text><text fill="blue" x="441.0" y="467.151" /><text fill="blue" x="36.5" y="452.051" /><text fill="blue" x="36.5" y="452.051">
</text><text fill="blue" x="36.5" y="452.051">Tax *</text><text fill="blue" x="36.5" y="452.051" /><text fill="blue" x="441.0" y="452.051" /><text fill="blue" x="441.0" y="452.051"> $0.00</text><rect fill-opacity="0.05" height="17" stroke="red" width="404.5" x="0.5" y="319.549" /><text fill="blue" x="441.0" y="452.051" /><text fill="blue" x="36.5" y="437.451" /><text fill="blue" x="36.5" y="437.451">
</text><text fill="blue" x="36.5" y="437.451">Total for this invoice</text><rect fill-opacity="0.05" height="17" stroke="red" width="134.5" x="405" y="319.549" /><text fill="blue" x="36.5" y="437.451" /><text fill="blue" x="441.0" y="437.451" /><text fill="blue" x="441.0" y="437.451"> $4.11</text><rect fill-opacity="0.05" height="18.248" stroke="red" width="539" x="0.5" y="357.549" /><text fill="blue" x="441.0" y="437.451" /><text fill="blue" x="36.5" y="399.451" /><text fill="blue" x="441.0" y="399.451" /><text fill="blue" x="36.5" y="398.451" /><text fill="blue" x="36.5" y="398.451">
</text><text fill="blue" x="36.5" y="398.451">Detail</text><text fill="blue" x="36.5" y="398.451" /><text fill="blue" x="36.5" y="380.203" /><text fill="blue" x="36.5" y="380.203">
</text><text fill="blue" x="36.5" y="380.203">AWS Data Transfer</text><text fill="blue" x="36.5" y="380.203" /><text fill="blue" x="441.0" y="380.203" /><text fill="blue" x="441.0" y="380.203"> $0.01</text><text fill="blue" x="441.0" y="380.203" /><text fill="blue" x="36.5" y="361.703" /><text fill="blue" x="36.5" y="361.703">
</text><text fill="blue" x="36.5" y="361.703">Charges</text><text fill="blue" x="36.5" y="361.703" /><text fill="blue" x="441.0" y="361.703" /><text fill="blue" x="441.0" y="361.703"> $0.01</text><text fill="blue" x="441.0" y="361.703" /><text fill="blue" x="36.5" y="346.603" /><text fill="blue" x="36.5" y="346.603">
</text><text fill="blue" x="36.5" y="346.603">VAT **</text><text fill="blue" x="36.5" y="346.603" /><text fill="blue" x="441.0" y="346.603" /><text fill="blue" x="441.0" y="346.603"> $0.00</text><text fill="blue" x="441.0" y="346.603" /><text fill="blue" x="36.5" y="332.003" /><text fill="blue" x="36.5" y="332.003">
</text><text fill="blue" x="36.5" y="332.003">Amazon Elastic Compute Cloud</text><text fill="blue" x="36.5" y="332.003" /><text fill="blue" x="441.0" y="332.003" /><text fill="blue" x="441.0" y="332.003"> $1.87</text><text fill="blue" x="441.0" y="332.003" /><text fill="blue" x="36.5" y="313.503" /><text fill="blue" x="36.5" y="313.503">
</text><text fill="blue" x="36.5" y="313.503">Charges</text><text fill="blue" x="36.5" y="313.503" /><text fill="blue" x="441.0" y="313.503" /><text fill="blue" x="441.0" y="313.503"> $1.87</text><text fill="blue" x="441.0" y="313.503" /><text fill="blue" x="36.5" y="298.403" /><text fill="blue" x="36.5" y="298.403">
</text><text fill="blue" x="36.5" y="298.403">VAT **</text><text fill="blue" x="36.5" y="298.403" /><text fill="blue" x="441.0" y="298.403" /><text fill="blue" x="441.0" y="298.403"> $0.00</text><text fill="blue" x="441.0" y="298.403" /><text fill="blue" x="36.5" y="283.803" /><text fill="blue" x="36.5" y="283.803">
</text><text fill="blue" x="36.5" y="283.803">Amazon Glacier</text><text fill="blue" x="36.5" y="283.803" /><text fill="blue" x="441.0" y="283.803" /><text fill="blue" x="441.0" y="283.803"> $2.22</text><text fill="blue" x="441.0" y="283.803" /><text fill="blue" x="36.5" y="265.303" /><text fill="blue" x="36.5" y="265.303">
</text><text fill="blue" x="36.5" y="265.303">Charges</text><text fill="blue" x="36.5" y="265.303" /><text fill="blue" x="441.0" y="265.303" /><text fill="blue" x="441.0" y="265.303"> $2.22</text><text fill="blue" x="441.0" y="265.303" /><text fill="blue" x="36.5" y="250.20299999999997" /><text fill="blue" x="36.5" y="250.20299999999997">
</text><text fill="blue" x="36.5" y="250.20299999999997">VAT **</text><text fill="blue" x="36.5" y="250.20299999999997" /><text fill="blue" x="441.0" y="250.20299999999997" /><text fill="blue" x="441.0" y="250.20299999999997"> $0.00</text><text fill="blue" x="441.0" y="250.20299999999997" /><text fill="blue" x="36.5" y="235.60299999999995" /><text fill="blue" x="36.5" y="235.60299999999995">
</text><text fill="blue" x="36.5" y="235.60299999999995">Amazon Simple Storage Service</text><text fill="blue" x="36.5" y="235.60299999999995" /><text fill="blue" x="441.0" y="235.60299999999995" /><text fill="blue" x="441.0" y="235.60299999999995"> $0.01</text><text fill="blue" x="441.0" y="235.60299999999995" /><text fill="blue" x="36.5" y="217.10299999999995" /><text fill="blue" x="36.5" y="217.10299999999995">
</text><text fill="blue" x="36.5" y="217.10299999999995">Charges</text><text fill="blue" x="36.5" y="217.10299999999995" /><text fill="blue" x="441.0" y="217.10299999999995" /><text fill="blue" x="441.0" y="217.10299999999995"> $0.01</text><text fill="blue" x="441.0" y="217.10299999999995" /><text fill="blue" x="36.5" y="202.00300000000004" /><text fill="blue" x="36.5" y="202.00300000000004">
</text><text fill="blue" x="36.5" y="202.00300000000004">VAT **</text><text fill="blue" x="36.5" y="202.00300000000004" /><text fill="blue" x="441.0" y="202.00300000000004" /><text fill="blue" x="441.0" y="202.00300000000004"> $0.00</text></svg>