<?xml version="1.0" encoding="utf-8" ?>
<svg baseProfile="tiny" height="100%" version="1.2" width="100%" xmlns="http://www.w3.org/2000/svg" xmlns:ev="http://www.w3.org/2001/xml-events" xmlns:xlink="http://www.w3.org/1999/xlink"><defs /><text fill="blue" x="0.0" y="0.0" /><text fill="blue" x="28.32" y="813.679999" /><text fill="blue" x="28.32" y="813.679999" /><text fill="blue" x="28.32" y="813.679999" /><rect fill-opacity="0.05" height="1227" stroke="red" width="840" x="0" y="0" /><text fill="blue" x="28.32" y="813.679999" /><rect fill-opacity="0.05" height="930" stroke="red" width="840" x="0" y="0" /><text fill="blue" x="28.32" y="813.679999" /><rect fill-opacity="0.05" height="2" stroke="red" width="840" x="0" y="62" /><text fill="blue" x="28.32" y="813.679999" /><rect fill-opacity="0.05" height="2" stroke="red" width="840" x="0" y="105" /><text fill="blue" x="28.32" y="813.679999" /><rect fill-opacity="0.05" height="1" stroke="red" width="399" x="21" y="293" /><text fill="blue" x="28.32" y="813.679999" /><rect fill-opacity="0.05" height="1" stroke="red" width="271" x="420" y="293" /><text fill="blue" x="28.32" y="813.679999" /><rect fill-opacity="0.05" height="1" stroke="red" width="128" x="691" y="293" /><text fill="blue" x="28.32" y="813.679999" /><text fill="blue" x="28.32" y="813.679999" /><rect fill-opacity="0.05" height="1" stroke="red" width="1" x="21" y="351" /><text fill="blue" x="28.32" y="813.679999" /><rect fill-opacity="0.05" height="1" stroke="red" width="1" x="419" y="351" /><text fill="blue" x="28.32" y="813.679999" /><text fill="blue" x="28.32" y="813.679999" /><text fill="blue" x="28.32" y="813.679999" /><text fill="blue" x="28.32" y="813.679999" /><text fill="blue" x="28.32" y="813.679999" /><rect fill-opacity="0.05" height="1" stroke="red" width="1" x="420" y="351" /><text fill="blue" x="28.32" y="813.679999" /><rect fill-opacity="0.05" height="1" stroke="red" width="1" x="690" y="351" /><text fill="blue" x="28.32" y="813.679999" /><text fill="blue" x="28.32" y="813.679999" /><text fill="blue" x="28.32" y="813.679999" /><text fill="blue" x="28.32" y="813.679999" /><text fill="blue" x="28.32" y="813.679999" /><rect fill-opacity="0.05" height="1" stroke="red" width="1" x="691" y="351" /><text fill="blue" x="28.32" y="813.679999" /><rect fill-opacity="0.05" height="1" stroke="red" width="1" x="818" y="351" /><text fill="blue" x="28.32" y="813.679999" /><text fill="blue" x="28.32" y="813.679999" /><text fill="blue" x="28.32" y="813.679999" /><text fill="blue" x="28.32" y="813.679999" /><text fill="blue" x="28.32" y="813.679999" /><rect fill-opacity="0.05" height="1" stroke="red" width="1" x="21" y="409" /><text fill="blue" x="28.32" y="813.679999" /><rect fill-opacity="0.05" height="1" stroke="red" width="1" x="419" y="409" /><text fill="blue" x="28.32" y="813.679999" /><text fill="blue" x="28.32" y="813.679999" /><text fill="blue" x="28.32" y="813.679999" /><text fill="blue" x="28.32" y="813.679999" /><text fill="blue" x="28.32" y="813.679999" /><rect fill-opacity="0.05" height="1" stroke="red" width="1" x="420" y="409" /><text fill="blue" x="28.32" y="813.679999" /><rect fill-opacity="0.05" height="1" stroke="red" width="1" x="690" y="409" /><text fill="blue" x="28.32" y="813.679999" /><text fill="blue" x="28.32" y="813.679999" /><text fill="blue" x="28.32" y="813.679999" /><text fill="blue" x="28.32" y="813.679999" /><text fill="blue" x="28.32" y="813.679999" /><rect fill-opacity="0.05" height="1" stroke="red" width="1" x="691" y="409" /><text fill="blue" x="28.32" y="813.679999" /><rect fill-opacity="0.05" height="1" stroke="red" width="1" x="818" y="409" /><text fill="blue" x="28.32" y="813.679999" /><text fill="blue" x="28.32" y="813.679999" /><text fill="blue" x="28.32" y="813.679999" /><text fill="blue" x="28.32" y="813.679999" /><text fill="blue" x="28.32" y="813.679999" /><rect fill-opacity="0.05" height="1" stroke="red" width="1" x="21" y="467" /><text fill="blue" x="28.32" y="813.679999" /><rect fill-opacity="0.05" height="1" stroke="red" width="1" x="419" y="467" /><text fill="blue" x="28.32" y="813.679999" /><text fill="blue" x="28.32" y="813.679999" /><text fill="blue" x="28.32" y="813.679999" /><text fill="blue" x="28.32" y="813.679999" /><text fill="blue" x="28.32" y="813.679999" /><rect fill-opacity="0.05" height="1" stroke="red" width="1" x="420" y="467" /><text fill="blue" x="28.32" y="813.679999" /><rect fill-opacity="0.05" height="1" stroke="red" width="1" x="690" y="467" /><text fill="blue" x="28.32" y="813.679999" /><text fill="blue" x="28.32" y="813.679999" /><text fill="blue" x="28.32" y="813.679999" /><text fill="blue" x="28.32" y="813.679999" /><text fill="blue" x="28.32" y="813.679999" /><rect fill-opacity="0.05" height="1" stroke="red" width="1" x="691" y="467" /><text fill="blue" x="28.32" y="813.679999" /><rect fill-opacity="0.05" height="1" stroke="red" width="1" x="818" y="467" /><text fill="blue" x="28.32" y="813.679999" /><text fill="blue" x="28.32" y="813.679999" /><text fill="blue" x="28.32" y="813.679999" /><text fill="blue" x="28.32" y="813.679999" /><rect fill-opacity="0.05" height="61" stroke="red" width="399" x="21" y="468" /><text fill="blue" x="28.32" y="813.679999" /><rect fill-opacity="0.05" height="61" stroke="red" width="271" x="420" y="468" /><text fill="blue" x="28.32" y="813.679999" /><text fill="blue" x="28.32" y="813.679999" /><rect fill-opacity="0.05" height="1" stroke="red" width="1" x="420" y="528" /><text fill="blue" x="28.32" y="813.679999" /><rect fill-opacity="0.05" height="1" stroke="red" width="1" x="690" y="528" /><text fill="blue" x="28.32" y="813.679999" /><text fill="blue" x="28.32" y="813.679999" /><text fill="blue" x="28.32" y="813.679999" /><text fill="blue" x="28.32" y="813.679999" /><rect fill-opacity="0.05" height="61" stroke="red" width="128" x="691" y="468" /><text fill="blue" x="28.32" y="813.679999" /><rect fill-opacity="0.05" height="61" stroke="red" width="128" x="691" y="468" /><text fill="blue" x="28.32" y="813.679999" /><rect fill-opacity="0.05" height="229" stroke="red" width="800" x="20" y="627" /><text fill="blue" x="28.32" y="813.679999" /><text fill="blue" x="28.32" y="813.679999" /><rect fill-opacity="0.05" height="1" stroke="red" width="1" x="22" y="700" /><text fill="blue" x="28.32" y="813.679999" /><rect fill-opacity="0.05" height="1" stroke="red" width="1" x="450" y="700" /><text fill="blue" x="28.32" y="813.679999" /><text fill="blue" x="28.32" y="813.679999" /><text fill="blue" x="28.32" y="813.679999" /><text fill="blue" x="28.32" y="813.679999" /><text fill="blue" x="28.32" y="813.679999" /><rect fill-opacity="0.05" height="1" stroke="red" width="1" x="453" y="700" /><text fill="blue" x="28.32" y="813.679999" /><rect fill-opacity="0.05" height="1" stroke="red" width="1" x="817" y="700" /><text fill="blue" x="28.32" y="813.679999" /><text fill="blue" x="28.32" y="813.679999" /><text fill="blue" x="28.32" y="813.679999" /><text fill="blue" x="28.32" y="813.679999" /><rect fill-opacity="0.05" height="124" stroke="red" width="840" x="0" y="930" /><text fill="blue" x="28.32" y="813.679999" /><rect fill-opacity="0.05" height="2" stroke="red" width="840" x="0" y="930" /><text fill="blue" x="28.32" y="813.679999" /><rect fill-opacity="0.05" height="2" stroke="red" width="840" x="0" y="1052" /><text fill="blue" x="28.32" y="813.679999" /><text fill="blue" x="47.52000054" y="804.07999876" /><text fill="blue" x="47.52000054" y="783.599998312" /><text fill="blue" x="47.52000054" y="783.599998312" /><text fill="blue" x="28.32" y="813.679999" /><text fill="blue" x="28.32" y="813.679999"> </text><text fill="blue" x="28.32" y="813.679999" /><text fill="blue" x="28.32" y="813.679999">
</text><text fill="blue" x="28.32" y="813.679999">PAYMENT RECEIPT</text><text fill="blue" x="28.32" y="813.679999" /><text fill="blue" x="28.32" y="813.679999">
</text><text fill="blue" x="28.32" y="813.679999">Guest Name: </text><text fill="blue" x="28.32" y="813.679999" /><text fill="blue" x="28.32" y="813.679999">
</text><text fill="blue" x="28.32" y="813.679999">Sanjay</text><text fill="blue" x="28.32" y="813.679999" /><text fill="blue" x="28.32" y="813.679999">
</text><text fill="blue" x="28.32" y="813.679999">Date: </text><text fill="blue" x="28.32" y="813.679999" /><text fill="blue" x="28.32" y="813.679999">
</text><text fill="blue" x="28.32" y="813.679999">31/12/2017</text><text fill="blue" x="28.32" y="813.679999" /><text fill="blue" x="28.32" y="813.679999">
</text><text fill="blue" x="28.32" y="813.679999">Hotel Details</text><text fill="blue" x="28.32" y="813.679999" /><text fill="blue" x="28.32" y="813.679999">
</text><text fill="blue" x="28.32" y="813.679999">OYO 4189 Resort Nanganallur,</text><text fill="blue" x="28.32" y="813.679999" /><text fill="blue" x="28.32" y="813.679999">
</text><text fill="blue" x="28.32" y="813.679999">25,Vembuliamman Koil Street,, Pazhavanthangal, Chennai</text><text fill="blue" x="28.32" y="813.679999" /><text fill="blue" x="28.32" y="813.679999">
</text><text fill="blue" x="28.32" y="813.679999">Check In</text><text fill="blue" x="28.32" y="813.679999" /><text fill="blue" x="28.32" y="813.679999">
</text><text fill="blue" x="28.32" y="813.679999">31/12/2017</text><text fill="blue" x="28.32" y="813.679999" /><text fill="blue" x="28.32" y="813.679999">
</text><text fill="blue" x="28.32" y="813.679999">Check </text><text fill="blue" x="28.32" y="813.679999" /><text fill="blue" x="28.32" y="813.679999">
</text><text fill="blue" x="28.32" y="813.679999">Out</text><text fill="blue" x="28.32" y="813.679999" /><text fill="blue" x="28.32" y="813.679999">
</text><text fill="blue" x="28.32" y="813.679999">01/01/2018</text><text fill="blue" x="28.32" y="813.679999" /><text fill="blue" x="28.32" y="813.679999">
</text><text fill="blue" x="28.32" y="813.679999">Rooms</text><text fill="blue" x="28.32" y="813.679999" /><text fill="blue" x="28.32" y="813.679999">
</text><text fill="blue" x="28.32" y="813.679999">1</text><text fill="blue" x="28.32" y="813.679999" /><text fill="blue" x="28.32" y="813.679999">
</text><text fill="blue" x="28.32" y="813.679999">Booking ID</text><text fill="blue" x="28.32" y="813.679999" /><text fill="blue" x="28.32" y="813.679999">
</text><text fill="blue" x="28.32" y="813.679999">IBZY2087</text><text fill="blue" x="28.32" y="813.679999" /><text fill="blue" x="28.32" y="813.679999">
</text><text fill="blue" x="28.32" y="813.679999">Payment Mode</text><text fill="blue" x="28.32" y="813.679999" /><text fill="blue" x="28.32" y="813.679999">
</text><text fill="blue" x="28.32" y="813.679999">Cash at Hotel</text><text fill="blue" x="28.32" y="813.679999" /><text fill="blue" x="28.32" y="813.679999">
</text><text fill="blue" x="28.32" y="813.679999">DESCRIPTION</text><text fill="blue" x="28.32" y="813.679999" /><text fill="blue" x="28.32" y="813.679999">
</text><text fill="blue" x="28.32" y="813.679999">RATE</text><text fill="blue" x="28.32" y="813.679999" /><text fill="blue" x="28.32" y="813.679999">
</text><text fill="blue" x="28.32" y="813.679999">AMOUNT</text><text fill="blue" x="28.32" y="813.679999" /><text fill="blue" x="28.32" y="813.679999" /><text fill="blue" x="28.32" y="813.679999">
</text><text fill="blue" x="28.32" y="813.679999">Room Charges</text><text fill="blue" x="28.32" y="813.679999" /><text fill="blue" x="28.32" y="813.679999" /><text fill="blue" x="28.32" y="813.679999">
</text><text fill="blue" x="28.32" y="813.679999">Rs 1939 x 1 Night x 1 Room</text><text fill="blue" x="28.32" y="813.679999" /><text fill="blue" x="28.32" y="813.679999" /><text fill="blue" x="28.32" y="813.679999">
</text><text fill="blue" x="28.32" y="813.679999">Rs 1939</text><text fill="blue" x="28.32" y="813.679999" /><text fill="blue" x="28.32" y="813.679999" /><text fill="blue" x="28.32" y="813.679999">
</text><text fill="blue" x="28.32" y="813.679999">Grand Total</text><text fill="blue" x="28.32" y="813.679999" /><text fill="blue" x="28.32" y="813.679999" /><text fill="blue" x="28.32" y="813.679999">
</text><text fill="blue" x="28.32" y="813.679999">Rs 1939</text><text fill="blue" x="28.32" y="813.679999" /><text fill="blue" x="28.32" y="813.679999" /><text fill="blue" x="28.32" y="813.679999">
</text><text fill="blue" x="28.32" y="813.679999">Payment received by OYO</text><text fill="blue" x="28.32" y="813.679999" /><text fill="blue" x="28.32" y="813.679999" /><text fill="blue" x="28.32" y="813.679999">
</text><text fill="blue" x="28.32" y="813.679999">Paid through Cash At Hotel </text><text fill="blue" x="28.32" y="813.679999" /><text fill="blue" x="28.32" y="813.679999" /><text fill="blue" x="28.32" y="813.679999">
</text><text fill="blue" x="28.32" y="813.679999">(Rs 1939)</text><text fill="blue" x="28.32" y="813.679999" /><text fill="blue" x="28.32" y="813.679999" /><text fill="blue" x="28.32" y="813.679999">
</text><text fill="blue" x="28.32" y="813.679999">Rs 1939</text><text fill="blue" x="28.32" y="813.679999" /><text fill="blue" x="28.32" y="813.679999" /><text fill="blue" x="28.32" y="813.679999">
</text><text fill="blue" x="28.32" y="813.679999">Balance ( if any )</text><text fill="blue" x="28.32" y="813.679999" /><text fill="blue" x="28.32" y="813.679999">
</text><text fill="blue" x="28.32" y="813.679999">Rs 0</text><text fill="blue" x="28.32" y="813.679999" /><text fill="blue" x="28.32" y="813.679999">
</text><text fill="blue" x="28.32" y="813.679999">Please Note: </text><text fill="blue" x="28.32" y="813.679999" /><text fill="blue" x="28.32" y="813.679999">
</text><text fill="blue" x="28.32" y="813.679999">Amount payable is inclusive of Central &amp; State Goods &amp; Services Tax at applicable slab rates. Please ask Hotel</text><text fill="blue" x="28.32" y="813.679999" /><text fill="blue" x="28.32" y="813.679999">
</text><text fill="blue" x="28.32" y="813.679999">for invoice at the time of check-out.</text><text fill="blue" x="28.32" y="813.679999" /><text fill="blue" x="28.32" y="813.679999">
</text><text fill="blue" x="28.32" y="813.679999">Note : </text><text fill="blue" x="28.32" y="813.679999" /><text fill="blue" x="28.32" y="813.679999">
</text><text fill="blue" x="28.32" y="813.679999">All Payment to be made in favor of</text><text fill="blue" x="28.32" y="813.679999" /><text fill="blue" x="28.32" y="813.679999">
</text><text fill="blue" x="28.32" y="813.679999">Oravel Stays Pvt. </text><text fill="blue" x="28.32" y="813.679999" /><text fill="blue" x="28.32" y="813.679999">
</text><text fill="blue" x="28.32" y="813.679999">Ltd.</text><text fill="blue" x="28.32" y="813.679999" /><text fill="blue" x="28.32" y="813.679999">
</text><text fill="blue" x="28.32" y="813.679999">Bank Name</text><text fill="blue" x="28.32" y="813.679999" /><text fill="blue" x="28.32" y="813.679999">
</text><text fill="blue" x="28.32" y="813.679999">HDFC Bank</text><text fill="blue" x="28.32" y="813.679999" /><text fill="blue" x="28.32" y="813.679999">
</text><text fill="blue" x="28.32" y="813.679999">Account No.</text><text fill="blue" x="28.32" y="813.679999" /><text fill="blue" x="28.32" y="813.679999">
</text><text fill="blue" x="28.32" y="813.679999">00030340067212</text><text fill="blue" x="28.32" y="813.679999" /><text fill="blue" x="28.32" y="813.679999">
</text><text fill="blue" x="28.32" y="813.679999">Address</text><text fill="blue" x="28.32" y="813.679999" /><text fill="blue" x="28.32" y="813.679999">
</text><text fill="blue" x="28.32" y="813.679999">209-214, Kailash Building26, Kasturba Gandhi Marg,</text><text fill="blue" x="28.32" y="813.679999" /><text fill="blue" x="28.32" y="813.679999">
</text><text fill="blue" x="28.32" y="813.679999">New Delhi,</text><text fill="blue" x="28.32" y="813.679999" /><text fill="blue" x="28.32" y="813.679999">
</text><text fill="blue" x="28.32" y="813.679999">New Delhi - 110001</text><text fill="blue" x="28.32" y="813.679999" /><text fill="blue" x="28.32" y="813.679999">
</text><text fill="blue" x="28.32" y="813.679999">IFSC CODE</text><text fill="blue" x="28.32" y="813.679999" /><text fill="blue" x="28.32" y="813.679999">
</text><text fill="blue" x="28.32" y="813.679999">HDFC0000003</text><text fill="blue" x="28.32" y="813.679999" /><text fill="blue" x="28.32" y="813.679999">
</text><text fill="blue" x="28.32" y="813.679999">GSTIN</text><text fill="blue" x="28.32" y="813.679999" /><text fill="blue" x="28.32" y="813.679999">
</text><text fill="blue" x="28.32" y="813.679999">06AABCO6063D1ZQ</text><text fill="blue" x="28.32" y="813.679999" /><text fill="blue" x="28.32" y="813.679999">
</text><text fill="blue" x="28.32" y="813.679999">CIN</text><text fill="blue" x="28.32" y="813.679999" /><text fill="blue" x="28.32" y="813.679999">
</text><text fill="blue" x="28.32" y="813.679999">U63090DL2012PTC231770</text><text fill="blue" x="28.32" y="813.679999" /><text fill="blue" x="28.32" y="813.679999">
</text><text fill="blue" x="28.32" y="813.679999">Oravel Stays Private Limited</text><text fill="blue" x="28.32" y="813.679999" /><text fill="blue" x="28.32" y="813.679999">
</text><text fill="blue" x="28.32" y="813.679999">Registered Office: </text><text fill="blue" x="28.32" y="813.679999" /><text fill="blue" x="28.32" y="813.679999">
</text><text fill="blue" x="28.32" y="813.679999">Delhi Rectangle Regus, Level 4, Rectangle 1, Commercial Complex D-4, Saket, New Delhi - 110017</text><text fill="blue" x="28.32" y="813.679999" /><text fill="blue" x="28.32" y="813.679999">
</text><text fill="blue" x="28.32" y="813.679999">Corporate Office: </text><text fill="blue" x="28.32" y="813.679999" /><text fill="blue" x="28.32" y="813.679999">
</text><text fill="blue" x="28.32" y="813.679999">9th floor, Spaze Palazo, Southern Peripheral Road, Sec-69, Gurgaon -122001 | Phone: 080 100 444 66 | Email:</text><text fill="blue" x="28.32" y="813.679999" /><text fill="blue" x="28.32" y="813.679999">
</text><text fill="blue" x="28.32" y="813.679999">contactus@oyorooms.com</text><text fill="blue" x="28.32" y="813.679999" /></svg>