<?xml version="1.0" encoding="utf-8" ?>
<svg baseProfile="tiny" height="100%" version="1.2" width="100%" xmlns="http://www.w3.org/2000/svg" xmlns:ev="http://www.w3.org/2001/xml-events" xmlns:xlink="http://www.w3.org/1999/xlink"><defs /><rect fill-opacity="0.05" height="13.92" stroke="red" width="123.96" x="10.32" y="380.64" /><rect fill-opacity="0.05" height="13.92" stroke="red" width="430.8" x="134.16" y="380.64" /><rect fill-opacity="0.05" height="13.919" stroke="red" width="123.96" x="10.32" y="353.04" /><rect fill-opacity="0.05" height="13.92" stroke="red" width="99" x="134.16" y="353.04" /><rect fill-opacity="0.05" height="13.92" stroke="red" width="218.04" x="233.04" y="353.04" /><rect fill-opacity="0.05" height="13.92" stroke="red" width="114" x="450.96" y="353.04" /><rect fill-opacity="0.05" height="13.92" stroke="red" width="123.96" x="10.32" y="325.44" /><rect fill-opacity="0.05" height="13.92" stroke="red" width="430.8" x="134.16" y="325.44" /><rect fill-opacity="0.05" height="13.92" stroke="red" width="123.96" x="10.32" y="297.84" /><rect fill-opacity="0.05" height="13.92" stroke="red" width="430.8" x="134.16" y="297.84" /><rect fill-opacity="0.05" height="13.919" stroke="red" width="123.96" x="10.32" y="270.24" /><rect fill-opacity="0.05" height="13.92" stroke="red" width="430.8" x="134.16" y="270.24" /><rect fill-opacity="0.05" height="14.64" stroke="red" width="123.96" x="10.32" y="241.92" /><rect fill-opacity="0.05" height="14.64" stroke="red" width="430.8" x="134.16" y="241.92" /><rect fill-opacity="0.05" height="13.92" stroke="red" width="123.96" x="10.32" y="214.32" /><rect fill-opacity="0.05" height="13.92" stroke="red" width="430.8" x="134.16" y="214.32" /><rect fill-opacity="0.05" height="13.919" stroke="red" width="123.96" x="10.32" y="186.72" /><rect fill-opacity="0.05" height="13.92" stroke="red" width="430.8" x="134.16" y="186.72" /><rect fill-opacity="0.05" height="13.92" stroke="red" width="123.96" x="10.32" y="159.12" /><rect fill-opacity="0.05" height="13.92" stroke="red" width="430.8" x="134.16" y="159.12" /><rect fill-opacity="0.05" height="13.92" stroke="red" width="123.96" x="10.32" y="131.52" /><rect fill-opacity="0.05" height="13.92" stroke="red" width="430.8" x="134.16" y="131.52" /><rect fill-opacity="0.05" height="13.919" stroke="red" width="123.96" x="10.32" y="103.92" /><rect fill-opacity="0.05" height="13.92" stroke="red" width="430.8" x="134.16" y="103.92" /><text fill="blue" x="0.0" y="0.0" /><text fill="blue" x="0.0" y="0.0">DEPARTMENT K&amp;B W.O#
</text><text fill="blue" x="0.0" y="0.0">DELIVERY:</text><text fill="blue" x="0.0" y="0.0"> UPS GROUND</text><text fill="blue" x="0.0" y="0.0"> REQUESTED BY:</text><text fill="blue" x="0.0" y="0.0">
</text><text fill="blue" x="0.0" y="0.0">UPS BLUE 2ND DAY</text><rect fill-opacity="0.05" height="20.399" stroke="red" width="97.92" x="134.64" y="615.12" /><text fill="blue" x="0.0" y="0.0" /><text fill="blue" x="0.0" y="0.0">
</text><text fill="blue" x="0.0" y="0.0">OVERNIGHT AM DELIVERY</text><text fill="blue" x="0.0" y="0.0" /><text fill="blue" x="0.0" y="0.0">
</text><text fill="blue" x="0.0" y="0.0"> </text><text fill="blue" x="0.0" y="0.0">
</text><text fill="blue" x="0.0" y="0.0">BILL TO: SHIP TO:
</text><text fill="blue" x="0.0" y="0.0">208 REBECCA'S POND RD
</text><text fill="blue" x="0.0" y="0.0">QTY MACH #</text><rect fill-opacity="0.05" height="24.961" stroke="red" width="554.999" x="10.32" y="395.04" /><text fill="blue" x="0.0" y="0.0" /><text fill="blue" x="0.0" y="0.0"> UNIT PRICE</text><rect fill-opacity="0.05" height="24.961" stroke="red" width="55.201" x="509.16" y="395.04" /><text fill="blue" x="0.0" y="0.0" /><text fill="blue" x="0.0" y="0.0"> EXTENDED 
</text><text fill="blue" x="0.0" y="0.0">COST</text><rect fill-opacity="0.05" height="12.84" stroke="red" width="554.999" x="10.32" y="90.72" /><text fill="blue" x="0.0" y="0.0" /><text fill="blue" x="0.0" y="0.0">
</text><text fill="blue" x="0.0" y="0.0">TOTAL</text><rect fill-opacity="0.05" height="11.52" stroke="red" width="554.999" x="10.32" y="64.44" /><text fill="blue" x="0.0" y="0.0" /><text fill="blue" x="0.0" y="0.0">
</text><text fill="blue" x="0.0" y="0.0">AUTHORIZED BY:</text><text fill="blue" x="0.0" y="0.0" /><text fill="blue" x="0.0" y="0.0">REQUISITION FORM</text><text fill="blue" x="0.0" y="0.0">
</text><text fill="blue" x="0.0" y="0.0">VENDOR NAME:</text><rect fill-opacity="0.05" height="21.36" stroke="red" width="112.32" x="233.04" y="636" /><text fill="blue" x="0.0" y="0.0" /><text fill="blue" x="0.0" y="0.0">DATE REQUIRED:</text><rect fill-opacity="0.05" height="55.92" stroke="red" width="278.879" x="10.32" y="420.48" /><text fill="blue" x="0.0" y="0.0" /><text fill="blue" x="0.0" y="0.0">
</text><text fill="blue" x="0.0" y="0.0"> </text><rect fill-opacity="0.05" height="25.92" stroke="red" width="123.84" x="10.32" y="394.56" /><text fill="blue" x="0.0" y="0.0" /><text fill="blue" x="0.0" y="0.0">
</text><text fill="blue" x="0.0" y="0.0">PART NUMBER</text><rect fill-opacity="0.05" height="25.92" stroke="red" width="217.921" x="233.04" y="394.56" /><text fill="blue" x="0.0" y="0.0" /><text fill="blue" x="0.0" y="0.0">DESCRIPTION</text><rect fill-opacity="0.05" height="13.801" stroke="red" width="275.64" x="289.2" y="476.4" /><text fill="blue" x="0.0" y="0.0" /><text fill="blue" x="0.0" y="0.0">(JOB, CUSTOMER, MATERIAL, ETC.)</text><rect fill-opacity="0.05" height="13.801" stroke="red" width="278.879" x="10.32" y="476.4" /><text fill="blue" x="0.0" y="0.0" /><text fill="blue" x="0.0" y="0.0"> SPECIAL INSTRUCTIONS:        </text><rect fill-opacity="0.05" height="13.8" stroke="red" width="163.32" x="401.52" y="536.76" /><text fill="blue" x="0.0" y="0.0" /><text fill="blue" x="0.0" y="0.0">K+B INDUSTRIES</text><text fill="blue" x="0.0" y="0.0" /><text fill="blue" x="0.0" y="0.0">SATURDAY DELIVERY
</text><text fill="blue" x="0.0" y="0.0">HOT SHOT
</text><text fill="blue" x="0.0" y="0.0">OTHER</text><rect fill-opacity="0.05" height="21.36" stroke="red" width="112.32" x="233.04" y="593.28" /><text fill="blue" x="0.0" y="0.0" /><text fill="blue" x="0.0" y="0.0">VENDOR CONTACT:</text><rect fill-opacity="0.05" height="13.8" stroke="red" width="241.92" x="103.44" y="536.76" /><text fill="blue" x="0.0" y="0.0" /><text fill="blue" x="0.0" y="0.0">
</text><text fill="blue" x="0.0" y="0.0">K+B INDUSTRIES</text><rect fill-opacity="0.05" height="21" stroke="red" width="241.92" x="103.44" y="490.2" /><text fill="blue" x="0.0" y="0.0" /><text fill="blue" x="0.0" y="0.0">
</text><text fill="blue" x="0.0" y="0.0">SCHRIEVER, LA 70395</text><rect fill-opacity="0.05" height="66.24" stroke="red" width="1.8" x="102.6" y="699.84" /><rect fill-opacity="0.05" height="717.36" stroke="red" width="1.8" x="9" y="50.52" /><rect fill-opacity="0.05" height="60.36" stroke="red" width="1.8" x="102.6" y="489.24" /><rect fill-opacity="0.05" height="715.56" stroke="red" width="1.8" x="564" y="50.52" /><rect fill-opacity="0.05" height="60.36" stroke="red" width="1.8" x="344.52" y="489.24" /><rect fill-opacity="0.05" height="69.72" stroke="red" width="1.8" x="288.36" y="419.52" /><rect fill-opacity="0.05" height="315.959" stroke="red" width="0.96" x="133.68" y="103.56" /><rect fill-opacity="0.05" height="315.959" stroke="red" width="0.959" x="164.4" y="103.56" /><rect fill-opacity="0.05" height="315.959" stroke="red" width="0.96" x="232.56" y="103.56" /><rect fill-opacity="0.05" height="315.959" stroke="red" width="0.96" x="450.48" y="103.56" /><rect fill-opacity="0.05" height="315.959" stroke="red" width="0.959" x="508.2" y="103.56" /><rect fill-opacity="0.05" height="1.8" stroke="red" width="555" x="10.8" y="766.08" /><rect fill-opacity="0.05" height="1.8" stroke="red" width="555" x="10.8" y="699.84" /><rect fill-opacity="0.05" height="0.96" stroke="red" width="330.961" x="233.04" y="699.6" /><rect fill-opacity="0.05" height="1.8" stroke="red" width="555" x="10.8" y="549.6" /><rect fill-opacity="0.05" height="1.8" stroke="red" width="555" x="10.8" y="489.24" /><rect fill-opacity="0.05" height="1.8" stroke="red" width="555" x="10.8" y="475.44" /><rect fill-opacity="0.05" height="1.8" stroke="red" width="555" x="10.8" y="419.52" /><rect fill-opacity="0.05" height="0.959" stroke="red" width="553.2" x="10.8" y="394.08" /><rect fill-opacity="0.05" height="0.96" stroke="red" width="553.2" x="10.8" y="380.28" /><rect fill-opacity="0.05" height="0.96" stroke="red" width="553.2" x="10.8" y="366.48" /><rect fill-opacity="0.05" height="0.959" stroke="red" width="553.2" x="10.8" y="352.68" /><rect fill-opacity="0.05" height="0.96" stroke="red" width="553.2" x="10.8" y="338.88" /><rect fill-opacity="0.05" height="0.96" stroke="red" width="553.2" x="10.8" y="325.08" /><rect fill-opacity="0.05" height="0.959" stroke="red" width="553.2" x="10.8" y="311.28" /><rect fill-opacity="0.05" height="0.96" stroke="red" width="553.2" x="10.8" y="297.48" /><rect fill-opacity="0.05" height="0.96" stroke="red" width="553.2" x="10.8" y="283.68" /><rect fill-opacity="0.05" height="0.959" stroke="red" width="553.2" x="10.8" y="269.88" /><rect fill-opacity="0.05" height="0.96" stroke="red" width="553.2" x="10.8" y="256.08" /><rect fill-opacity="0.05" height="0.96" stroke="red" width="553.2" x="10.8" y="241.56" /><rect fill-opacity="0.05" height="0.959" stroke="red" width="553.2" x="10.8" y="227.76" /><rect fill-opacity="0.05" height="0.96" stroke="red" width="553.2" x="10.8" y="213.96" /><rect fill-opacity="0.05" height="0.96" stroke="red" width="553.2" x="10.8" y="200.16" /><rect fill-opacity="0.05" height="0.959" stroke="red" width="553.2" x="10.8" y="186.36" /><rect fill-opacity="0.05" height="0.96" stroke="red" width="553.2" x="10.8" y="172.56" /><rect fill-opacity="0.05" height="0.96" stroke="red" width="553.2" x="10.8" y="158.76" /><rect fill-opacity="0.05" height="0.959" stroke="red" width="553.2" x="10.8" y="144.96" /><rect fill-opacity="0.05" height="0.96" stroke="red" width="553.2" x="10.8" y="131.16" /><rect fill-opacity="0.05" height="0.96" stroke="red" width="553.2" x="10.8" y="117.36" /><rect fill-opacity="0.05" height="0.959" stroke="red" width="553.2" x="10.8" y="103.56" /><rect fill-opacity="0.05" height="0.959" stroke="red" width="55.32" x="508.68" y="90.6" /><rect fill-opacity="0.05" height="0.959" stroke="red" width="55.32" x="508.68" y="88.8" /><rect fill-opacity="0.05" height="0.96" stroke="red" width="155.16" x="134.16" y="63.48" /><rect fill-opacity="0.05" height="1.8" stroke="red" width="555" x="10.8" y="50.52" /><rect fill-opacity="0.05" height="-49.138" stroke="red" width="80.94" x="17.71" y="756.462" /><text fill="blue" x="0.0" y="0.0" /><text fill="blue" x="17.7105007" y="707.3235464" /><text fill="blue" x="17.7105007" y="707.3235464">
</text></svg>