<?xml version="1.0" encoding="utf-8" ?>
<svg baseProfile="tiny" height="100%" version="1.2" width="100%" xmlns="http://www.w3.org/2000/svg" xmlns:ev="http://www.w3.org/2001/xml-events" xmlns:xlink="http://www.w3.org/1999/xlink"><defs /><text fill="blue" x="0.0" y="0.0" /><text fill="blue" x="59.4" y="696.868" /><text fill="blue" x="59.4" y="696.868" /><text fill="blue" x="0.0" y="0.0">~Page 1 of 4~</text><text fill="blue" x="0.0" y="0.0" /><text fill="blue" x="0.0" y="0.0">
</text><text fill="blue" x="0.0" y="0.0">BLANKET RELEASE -REVISED NOT A NEW PO
</text><text fill="blue" x="0.0" y="0.0">NAVASOTA INDUSTRIAL 
</text><text fill="blue" x="0.0" y="0.0">SUPPLY LTD</text><text fill="blue" x="0.0" y="0.0">Order Number </text><text fill="blue" x="0.0" y="0.0">20783104
</text><text fill="blue" x="0.0" y="0.0">PO BOX 1487
</text><text fill="blue" x="0.0" y="0.0">NAVASOTA,TX 77868</text><text fill="blue" x="0.0" y="0.0">Release </text><text fill="blue" x="0.0" y="0.0"> 521 
</text><text fill="blue" x="0.0" y="0.0">"</text><text fill="blue" x="0.0" y="0.0">Revision</text><text fill="blue" x="0.0" y="0.0">"</text><text fill="blue" x="0.0" y="0.0">1 
</text><text fill="blue" x="0.0" y="0.0">Order Status </text><text fill="blue" x="0.0" y="0.0">OPEN
</text><text fill="blue" x="0.0" y="0.0">Date Approved </text><text fill="blue" x="0.0" y="0.0">20-OCT-2021 
</text><text fill="blue" x="0.0" y="0.0">COMPLETE USS ORDER NUMBER AND 
</text><text fill="blue" x="0.0" y="0.0">LINE NUMBER FOR EACH ITEM MUST BE
</text><text fill="blue" x="0.0" y="0.0">SHOWN ON BILL OF LADING AND 
</text><text fill="blue" x="0.0" y="0.0">INVOICE</text><rect fill-opacity="0.05" height="209.314" stroke="red" width="1.5" x="561.75" y="533.294" /><rect fill-opacity="0.05" height="209.314" stroke="red" width="1.5" x="47.85" y="533.294" /><rect fill-opacity="0.05" height="1.5" stroke="red" width="515.4" x="47.85" y="533.294" /><rect fill-opacity="0.05" height="1.5" stroke="red" width="515.4" x="47.85" y="741.108" /><text fill="blue" x="0.0" y="0.0" /><text fill="blue" x="0.0" y="0.0">
</text><text fill="blue" x="0.0" y="0.0">This PO has been revised.  For PO revision information refer to Quantity / Price / Deliver Date</text><rect fill-opacity="0.05" height="18.4" stroke="red" width="1" x="562.55" y="503.334" /><rect fill-opacity="0.05" height="18.4" stroke="red" width="1" x="47.75" y="503.334" /><rect fill-opacity="0.05" height="1" stroke="red" width="515.8" x="47.75" y="520.734" /><rect fill-opacity="0.05" height="1" stroke="red" width="515.8" x="47.75" y="503.334" /><text fill="blue" x="0.0" y="0.0" /><text fill="blue" x="0.0" y="0.0">
</text><text fill="blue" x="0.0" y="0.0">Buyer</text><text fill="blue" x="0.0" y="0.0">:King, Daniel </text><text fill="blue" x="0.0" y="0.0">Bill To:</text><text fill="blue" x="0.0" y="0.0"> U. S. Steel Oilwell Services, LLC 
</text><text fill="blue" x="0.0" y="0.0">Accounts Payable Dept.
</text><text fill="blue" x="0.0" y="0.0">PO BOX 267
</text><text fill="blue" x="0.0" y="0.0">Attn Accounts Payable
</text><text fill="blue" x="0.0" y="0.0">Pittsburgh, PA  15230
</text><text fill="blue" x="0.0" y="0.0">United States</text><text fill="blue" x="0.0" y="0.0">Tel</text><text fill="blue" x="0.0" y="0.0">:412-433-2192 </text><text fill="blue" x="0.0" y="0.0"> 
</text><text fill="blue" x="0.0" y="0.0">Fax</text><text fill="blue" x="0.0" y="0.0">:412-433-5836
</text><text fill="blue" x="0.0" y="0.0">Email</text><text fill="blue" x="0.0" y="0.0">:procurementservices@uss.com
</text><text fill="blue" x="0.0" y="0.0">æ        **For all invoice related inquiries please contact AccountsPayableVendorInquiries@uss.com or 412-433-1303. </text><text fill="blue" x="0.0" y="0.0"> DO 
</text><text fill="blue" x="0.0" y="0.0">NOT SUBMIT INVOICES TO THIS EMAIL ADDRESS**
</text><text fill="blue" x="0.0" y="0.0">æ       
</text><text fill="blue" x="0.0" y="0.0">*** THIRD PARTY LOGISTICS TERMS AND CONDITIONS***
</text><text fill="blue" x="0.0" y="0.0">All Truckload \\\\\\\\\\\\\\\(TL\\\\\\\\\\\\\\\) and Less than Truckload \\\\\\\\\\\\\\\(LTL\\\\\\\\\\\\\\\) shipping requirements must be arranged through Pittsburgh Logistics 
</text><text fill="blue" x="0.0" y="0.0">Services,\\\\\\\\\\\\\\\(PLS\\\\\\\\\\\\\\\)at either 724-709-2125 x1 or inboundfreight@plslogistics.com. Failure to use PLS for these shipping 
</text><text fill="blue" x="0.0" y="0.0">requirements will result in the freight charges being deducted from the seller's invoice.  
</text><text fill="blue" x="0.0" y="0.0">All "Small Package" shipping requirements will continue to be arranged by the Seller as it has been in the past and will be 
</text><text fill="blue" x="0.0" y="0.0">billed to USS accordingly.  "Small Package" is defined as any package that is less than 150 pounds in weight and the package
</text><text fill="blue" x="0.0" y="0.0">length plus girth is less than 165 inches.
</text><text fill="blue" x="0.0" y="0.0">The risk of loss for all material shipped to USS, regardless of the shipping means, will remain with the Seller until delivered to 
</text><text fill="blue" x="0.0" y="0.0">the named destination, unless otherwise agreed to in writing.</text><rect fill-opacity="0.05" height="0.5" stroke="red" width="516.3" x="47.85" y="356.244" /><rect fill-opacity="0.05" height="0.5" stroke="red" width="514.3" x="48.85" y="355.244" /><rect fill-opacity="0.05" height="152.512" stroke="red" width="0.5" x="562.65" y="203.232" /><rect fill-opacity="0.05" height="154.512" stroke="red" width="0.5" x="563.65" y="202.232" /><rect fill-opacity="0.05" height="0.5" stroke="red" width="514.3" x="48.85" y="203.232" /><rect fill-opacity="0.05" height="0.5" stroke="red" width="516.3" x="47.85" y="202.232" /><rect fill-opacity="0.05" height="154.512" stroke="red" width="0.5" x="47.85" y="202.232" /><rect fill-opacity="0.05" height="152.512" stroke="red" width="0.5" x="48.85" y="203.232" /><text fill="blue" x="0.0" y="0.0" /><text fill="blue" x="0.0" y="0.0">
</text><text fill="blue" x="0.0" y="0.0">Payment Terms </text><text fill="blue" x="0.0" y="0.0">EOAP 90 </text><text fill="blue" x="0.0" y="0.0">Ref</text><text fill="blue" x="0.0" y="0.0"> </text><text fill="blue" x="0.0" y="0.0">Contract </text><text fill="blue" x="0.0" y="0.0"> 20783104 
</text><text fill="blue" x="0.0" y="0.0">Delivery Terms </text><text fill="blue" x="0.0" y="0.0">3rd Party Logistics; Free Carrier, Incoterms 2020
</text><text fill="blue" x="0.0" y="0.0">Delivery Point </text><text fill="blue" x="0.0" y="0.0">PRIMARY SHIP TO </text><text fill="blue" x="0.0" y="0.0"> </text><text fill="blue" x="0.0" y="0.0">Effective From </text><text fill="blue" x="0.0" y="0.0"> </text><text fill="blue" x="0.0" y="0.0">30-NOV-2018 
</text><text fill="blue" x="0.0" y="0.0"> </text><text fill="blue" x="0.0" y="0.0">Effective To </text><text fill="blue" x="0.0" y="0.0"> </text><text fill="blue" x="0.0" y="0.0">30-SEP-2022 </text><rect fill-opacity="0.05" height="14.336" stroke="red" width="0.5" x="562.65" y="135.96" /><rect fill-opacity="0.05" height="15.336" stroke="red" width="0.5" x="563.65" y="134.96" /><rect fill-opacity="0.05" height="0.5" stroke="red" width="122.15" x="441" y="135.96" /><rect fill-opacity="0.05" height="0.5" stroke="red" width="123.15" x="441" y="134.96" /><rect fill-opacity="0.05" height="0.5" stroke="red" width="139.5" x="301.5" y="135.96" /><rect fill-opacity="0.05" height="0.5" stroke="red" width="139.5" x="301.5" y="134.96" /><rect fill-opacity="0.05" height="0.5" stroke="red" width="157.55" x="143.95" y="135.96" /><rect fill-opacity="0.05" height="0.5" stroke="red" width="157.55" x="143.95" y="134.96" /><rect fill-opacity="0.05" height="0.5" stroke="red" width="95.1" x="48.85" y="135.96" /><rect fill-opacity="0.05" height="0.5" stroke="red" width="96.1" x="47.85" y="134.96" /><rect fill-opacity="0.05" height="15.336" stroke="red" width="0.5" x="47.85" y="134.96" /><rect fill-opacity="0.05" height="14.336" stroke="red" width="0.5" x="48.85" y="135.96" /><rect fill-opacity="0.05" height="13.836" stroke="red" width="0.5" x="562.65" y="150.296" /><rect fill-opacity="0.05" height="13.836" stroke="red" width="0.5" x="563.65" y="150.296" /><rect fill-opacity="0.05" height="13.836" stroke="red" width="0.5" x="47.85" y="150.296" /><rect fill-opacity="0.05" height="13.836" stroke="red" width="0.5" x="48.85" y="150.296" /><rect fill-opacity="0.05" height="13.836" stroke="red" width="0.5" x="562.65" y="164.132" /><rect fill-opacity="0.05" height="13.836" stroke="red" width="0.5" x="563.65" y="164.132" /><rect fill-opacity="0.05" height="13.836" stroke="red" width="0.5" x="47.85" y="164.132" /><rect fill-opacity="0.05" height="13.836" stroke="red" width="0.5" x="48.85" y="164.132" /><rect fill-opacity="0.05" height="0.5" stroke="red" width="123.15" x="441" y="192.804" /><rect fill-opacity="0.05" height="0.5" stroke="red" width="122.15" x="441" y="191.804" /><rect fill-opacity="0.05" height="14.336" stroke="red" width="0.5" x="562.65" y="177.968" /><rect fill-opacity="0.05" height="15.336" stroke="red" width="0.5" x="563.65" y="177.968" /><rect fill-opacity="0.05" height="0.5" stroke="red" width="139.5" x="301.5" y="192.804" /><rect fill-opacity="0.05" height="0.5" stroke="red" width="139.5" x="301.5" y="191.804" /><rect fill-opacity="0.05" height="0.5" stroke="red" width="157.55" x="143.95" y="192.804" /><rect fill-opacity="0.05" height="0.5" stroke="red" width="157.55" x="143.95" y="191.804" /><rect fill-opacity="0.05" height="0.5" stroke="red" width="96.1" x="47.85" y="192.804" /><rect fill-opacity="0.05" height="0.5" stroke="red" width="95.1" x="48.85" y="191.804" /><rect fill-opacity="0.05" height="15.336" stroke="red" width="0.5" x="47.85" y="177.968" /><rect fill-opacity="0.05" height="14.336" stroke="red" width="0.5" x="48.85" y="177.968" /></svg>