<?xml version="1.0" encoding="utf-8" ?>
<svg baseProfile="tiny" height="100%" version="1.2" width="100%" xmlns="http://www.w3.org/2000/svg" xmlns:ev="http://www.w3.org/2001/xml-events" xmlns:xlink="http://www.w3.org/1999/xlink"><defs /><text fill="blue" x="0.0" y="0.0" /><text fill="blue" x="27.96" y="722.4" /><text fill="blue" x="27.96" y="722.4" /><text fill="blue" x="0.0" y="792.0" /><text fill="blue" x="0.0" y="792.0" /><text fill="blue" x="0.0" y="792.0" /><text fill="blue" x="0.0" y="792.0" /><text fill="blue" x="0.0" y="792.0" /><text fill="blue" x="0.0" y="792.0" /><text fill="blue" x="0.0" y="792.0" /><text fill="blue" x="0.0" y="792.0" /><text fill="blue" x="0.0" y="792.0" /><text fill="blue" x="0.0" y="792.0" /><text fill="blue" x="0.0" y="792.0" /><text fill="blue" x="0.0" y="792.0" /><text fill="blue" x="0.0" y="792.0" /><text fill="blue" x="0.0" y="792.0" /><text fill="blue" x="0.0" y="792.0" /><text fill="blue" x="0.0" y="792.0" /><text fill="blue" x="0.0" y="792.0" /><text fill="blue" x="0.0" y="792.0" /><text fill="blue" x="0.0" y="792.0" /><text fill="blue" x="0.0" y="792.0" /><text fill="blue" x="0.0" y="792.0" /><text fill="blue" x="0.0" y="792.0" /><text fill="blue" x="0.0" y="792.0" /><text fill="blue" x="0.0" y="792.0" /><text fill="blue" x="0.0" y="792.0" /><text fill="blue" x="0.0" y="792.0" /><text fill="blue" x="0.0" y="792.0" /><text fill="blue" x="0.0" y="792.0" /><text fill="blue" x="0.0" y="792.0" /><text fill="blue" x="0.0" y="792.0" /><text fill="blue" x="0.0" y="792.0" /><text fill="blue" x="0.0" y="792.0" /><text fill="blue" x="0.0" y="792.0" /><text fill="blue" x="0.0" y="792.0" /><text fill="blue" x="0.0" y="792.0" /><text fill="blue" x="0.0" y="792.0" /><text fill="blue" x="0.0" y="792.0" /><text fill="blue" x="0.0" y="792.0" /><text fill="blue" x="0.0" y="792.0" /><text fill="blue" x="0.0" y="792.0" /><text fill="blue" x="0.0" y="792.0" /><text fill="blue" x="0.0" y="792.0" /><text fill="blue" x="0.0" y="792.0" /><text fill="blue" x="0.0" y="792.0" /><text fill="blue" x="0.0" y="792.0" /><text fill="blue" x="0.0" y="792.0" /><text fill="blue" x="0.0" y="792.0" /><text fill="blue" x="0.0" y="792.0" /><text fill="blue" x="0.0" y="792.0" /><text fill="blue" x="0.0" y="792.0" /><text fill="blue" x="0.0" y="792.0" /><text fill="blue" x="0.0" y="792.0" /><text fill="blue" x="0.0" y="792.0" /><text fill="blue" x="0.0" y="792.0" /><text fill="blue" x="0.0" y="792.0" /><text fill="blue" x="0.0" y="792.0" /><text fill="blue" x="0.0" y="792.0" /><text fill="blue" x="0.0" y="792.0" /><text fill="blue" x="0.0" y="792.0" /><text fill="blue" x="0.0" y="792.0" /><text fill="blue" x="0.0" y="792.0" /><text fill="blue" x="0.0" y="792.0" /><text fill="blue" x="0.0" y="792.0" /><text fill="blue" x="0.0" y="792.0" /><text fill="blue" x="0.0" y="792.0" /><text fill="blue" x="0.0" y="792.0" /><text fill="blue" x="0.0" y="792.0" /><text fill="blue" x="0.0" y="792.0" /><text fill="blue" x="0.0" y="792.0" /><text fill="blue" x="0.0" y="792.0" /><text fill="blue" x="0.0" y="792.0" /><text fill="blue" x="0.0" y="792.0" /><text fill="blue" x="0.0" y="792.0" /><text fill="blue" x="0.0" y="792.0" /><text fill="blue" x="0.0" y="792.0" /><text fill="blue" x="0.0" y="792.0" /><text fill="blue" x="0.0" y="792.0" /><text fill="blue" x="0.0" y="792.0" /><text fill="blue" x="0.0" y="792.0" /><text fill="blue" x="0.0" y="792.0" /><text fill="blue" x="0.0" y="792.0" /><text fill="blue" x="0.0" y="792.0" /><text fill="blue" x="0.0" y="792.0" /><text fill="blue" x="0.0" y="792.0" /><text fill="blue" x="0.0" y="792.0" /><text fill="blue" x="0.0" y="792.0" /><text fill="blue" x="0.0" y="792.0" /><text fill="blue" x="0.0" y="792.0" /><text fill="blue" x="0.0" y="792.0" /><text fill="blue" x="0.0" y="792.0" /><text fill="blue" x="0.0" y="792.0" /><text fill="blue" x="0.0" y="792.0" /><text fill="blue" x="0.0" y="792.0" /><text fill="blue" x="0.0" y="792.0" /><text fill="blue" x="0.0" y="792.0" /><text fill="blue" x="0.0" y="792.0" /><text fill="blue" x="0.0" y="792.0" /><text fill="blue" x="0.0" y="792.0" /><text fill="blue" x="0.0" y="792.0" /><text fill="blue" x="0.0" y="792.0" /><text fill="blue" x="0.0" y="792.0" /><text fill="blue" x="0.0" y="792.0" /><text fill="blue" x="0.0" y="792.0" /><text fill="blue" x="0.0" y="792.0" /><text fill="blue" x="0.0" y="792.0" /><text fill="blue" x="0.0" y="792.0" /><text fill="blue" x="0.0" y="792.0" /><text fill="blue" x="0.0" y="792.0" /><text fill="blue" x="0.0" y="792.0" /><text fill="blue" x="0.0" y="792.0" /><text fill="blue" x="0.0" y="792.0" /><text fill="blue" x="0.0" y="792.0" /><text fill="blue" x="0.0" y="792.0" /><text fill="blue" x="0.0" y="792.0" /><text fill="blue" x="0.0" y="792.0" /><text fill="blue" x="0.0" y="792.0" /><text fill="blue" x="0.0" y="792.0" /><text fill="blue" x="0.0" y="792.0" /><text fill="blue" x="0.0" y="792.0" /><text fill="blue" x="0.0" y="792.0" /><text fill="blue" x="0.0" y="792.0" /><text fill="blue" x="0.0" y="792.0" /><text fill="blue" x="0.0" y="792.0" /><text fill="blue" x="0.0" y="792.0" /><text fill="blue" x="0.0" y="792.0" /><text fill="blue" x="0.0" y="792.0" /><text fill="blue" x="0.0" y="792.0" /><text fill="blue" x="0.0" y="792.0" /><text fill="blue" x="0.0" y="792.0" /><text fill="blue" x="0.0" y="792.0" /><text fill="blue" x="0.0" y="792.0" /><text fill="blue" x="0.0" y="792.0" /><text fill="blue" x="0.0" y="792.0" /><text fill="blue" x="0.0" y="792.0" /><text fill="blue" x="0.0" y="792.0" /><text fill="blue" x="0.0" y="792.0" /><text fill="blue" x="0.0" y="792.0" /><text fill="blue" x="0.0" y="792.0" /><text fill="blue" x="0.0" y="792.0" /><text fill="blue" x="0.0" y="792.0" /><text fill="blue" x="0.0" y="792.0" /><text fill="blue" x="0.0" y="792.0" /><text fill="blue" x="0.0" y="792.0" /><text fill="blue" x="0.0" y="792.0" /><text fill="blue" x="0.0" y="792.0" /><text fill="blue" x="0.0" y="792.0" /><text fill="blue" x="0.0" y="792.0" /><text fill="blue" x="0.0" y="792.0" /><text fill="blue" x="0.0" y="792.0" /><text fill="blue" x="0.0" y="792.0" /><text fill="blue" x="0.0" y="792.0" /><text fill="blue" x="0.0" y="792.0" /><text fill="blue" x="0.0" y="792.0" /><text fill="blue" x="0.0" y="792.0" /><text fill="blue" x="0.0" y="792.0" /><text fill="blue" x="0.0" y="792.0" /><text fill="blue" x="0.0" y="792.0" /><text fill="blue" x="0.0" y="792.0" /><text fill="blue" x="0.0" y="0.0">PURCHASE ORDER</text><text fill="blue" x="0.0" y="0.0" /><text fill="blue" x="0.0" y="0.0">
</text><text fill="blue" x="0.0" y="0.0"> PURCHASE ORDER NUMBER</text><text fill="blue" x="0.0" y="0.0" /><text fill="blue" x="0.0" y="0.0">
</text><text fill="blue" x="0.0" y="0.0">P40812</text><text fill="blue" x="0.0" y="0.0" /><text fill="blue" x="0.0" y="0.0">
</text><text fill="blue" x="0.0" y="0.0">*P40812*</text><text fill="blue" x="0.0" y="0.0" /><text fill="blue" x="0.0" y="0.0">
</text><text fill="blue" x="0.0" y="0.0">Abaco Drilling Technologies LLC</text><text fill="blue" x="0.0" y="0.0" /><text fill="blue" x="0.0" y="0.0">
</text><text fill="blue" x="0.0" y="0.0">713 Northpark Central, Suite 400</text><text fill="blue" x="0.0" y="0.0" /><text fill="blue" x="0.0" y="0.0">
</text><text fill="blue" x="0.0" y="0.0">Houston, TX 77073 United States</text><text fill="blue" x="0.0" y="0.0" /><text fill="blue" x="0.0" y="0.0">
</text><text fill="blue" x="0.0" y="0.0">Phone: 281-869-0700   Fax: 281-869-0701</text><text fill="blue" x="0.0" y="0.0" /><text fill="blue" x="0.0" y="0.0">
</text><text fill="blue" x="0.0" y="0.0">SHIP TO</text><text fill="blue" x="0.0" y="0.0" /><text fill="blue" x="0.0" y="0.0">
</text><text fill="blue" x="0.0" y="0.0">VENDOR</text><text fill="blue" x="0.0" y="0.0" /><text fill="blue" x="0.0" y="0.0">
</text><text fill="blue" x="0.0" y="0.0"> Abaco Drilling Technologies LLC (US)</text><text fill="blue" x="0.0" y="0.0" /><text fill="blue" x="0.0" y="0.0">
</text><text fill="blue" x="0.0" y="0.0"> Navasota Industrial Supply, LTD</text><text fill="blue" x="0.0" y="0.0" /><text fill="blue" x="0.0" y="0.0">
</text><text fill="blue" x="0.0" y="0.0"> 713 NorthPark Central, Suite 400</text><text fill="blue" x="0.0" y="0.0" /><text fill="blue" x="0.0" y="0.0">
</text><text fill="blue" x="0.0" y="0.0"> 9527 FM 379</text><text fill="blue" x="0.0" y="0.0" /><text fill="blue" x="0.0" y="0.0">
</text><text fill="blue" x="0.0" y="0.0"> Houston, TX 77073</text><text fill="blue" x="0.0" y="0.0" /><text fill="blue" x="0.0" y="0.0">
</text><text fill="blue" x="0.0" y="0.0"> Navasota, TX 77868</text><text fill="blue" x="0.0" y="0.0" /><text fill="blue" x="0.0" y="0.0">
</text><text fill="blue" x="0.0" y="0.0"> USA</text><text fill="blue" x="0.0" y="0.0" /><text fill="blue" x="0.0" y="0.0">
</text><text fill="blue" x="0.0" y="0.0"> United States</text><text fill="blue" x="0.0" y="0.0" /><text fill="blue" x="0.0" y="0.0">
</text><text fill="blue" x="0.0" y="0.0"> </text><text fill="blue" x="0.0" y="0.0" /><text fill="blue" x="0.0" y="0.0">
</text><text fill="blue" x="0.0" y="0.0"> 01</text><text fill="blue" x="0.0" y="0.0" /><text fill="blue" x="0.0" y="0.0">
</text><text fill="blue" x="0.0" y="0.0"> PHONE NUMBER</text><text fill="blue" x="0.0" y="0.0" /><text fill="blue" x="0.0" y="0.0">
</text><text fill="blue" x="0.0" y="0.0">936-825-7368</text><text fill="blue" x="0.0" y="0.0" /><text fill="blue" x="0.0" y="0.0">
</text><text fill="blue" x="0.0" y="0.0"> FAX NUMBER</text><text fill="blue" x="0.0" y="0.0" /><text fill="blue" x="0.0" y="0.0">
</text><text fill="blue" x="0.0" y="0.0">936-825-3221</text><text fill="blue" x="0.0" y="0.0" /><text fill="blue" x="0.0" y="0.0">
</text><text fill="blue" x="0.0" y="0.0">ORDER DELIVERY DATE</text><text fill="blue" x="0.0" y="0.0" /><text fill="blue" x="0.0" y="0.0">
</text><text fill="blue" x="0.0" y="0.0"> P.O. DATE</text><text fill="blue" x="0.0" y="0.0" /><text fill="blue" x="0.0" y="0.0">
</text><text fill="blue" x="0.0" y="0.0">10/28/2021</text><text fill="blue" x="0.0" y="0.0" /><text fill="blue" x="0.0" y="0.0">
</text><text fill="blue" x="0.0" y="0.0">10/19/2021</text><text fill="blue" x="0.0" y="0.0" /><text fill="blue" x="0.0" y="0.0">
</text><text fill="blue" x="0.0" y="0.0">CONTACT</text><text fill="blue" x="0.0" y="0.0" /><text fill="blue" x="0.0" y="0.0">
</text><text fill="blue" x="0.0" y="0.0">SHIPPING METHOD</text><text fill="blue" x="0.0" y="0.0" /><text fill="blue" x="0.0" y="0.0">
</text><text fill="blue" x="0.0" y="0.0">BRAD DEFOY</text><text fill="blue" x="0.0" y="0.0" /><text fill="blue" x="0.0" y="0.0">
</text><text fill="blue" x="0.0" y="0.0">BUYER</text><text fill="blue" x="0.0" y="0.0" /><text fill="blue" x="0.0" y="0.0">
</text><text fill="blue" x="0.0" y="0.0">PAYMENT TERMS</text><text fill="blue" x="0.0" y="0.0" /><text fill="blue" x="0.0" y="0.0">
</text><text fill="blue" x="0.0" y="0.0">IALCORT</text><text fill="blue" x="0.0" y="0.0" /><text fill="blue" x="0.0" y="0.0">
</text><text fill="blue" x="0.0" y="0.0">NET 30 DAYS</text><text fill="blue" x="0.0" y="0.0" /><text fill="blue" x="0.0" y="0.0">
</text><text fill="blue" x="0.0" y="0.0">VENDOR ID</text><text fill="blue" x="0.0" y="0.0" /><text fill="blue" x="0.0" y="0.0">
</text><text fill="blue" x="0.0" y="0.0">FOB</text><text fill="blue" x="0.0" y="0.0" /><text fill="blue" x="0.0" y="0.0">
</text><text fill="blue" x="0.0" y="0.0">10057</text><text fill="blue" x="0.0" y="0.0" /><text fill="blue" x="0.0" y="0.0">
</text><text fill="blue" x="0.0" y="0.0">ORDER DETAILS:</text><text fill="blue" x="0.0" y="0.0" /><text fill="blue" x="0.0" y="0.0">
</text><text fill="blue" x="0.0" y="0.0">DELIVER TO DYLAN CLARK IN THE CUTBACK/STRAIGHTENER AREA</text><text fill="blue" x="0.0" y="0.0" /><text fill="blue" x="0.0" y="0.0">
</text><text fill="blue" x="0.0" y="0.0">NET</text><text fill="blue" x="0.0" y="0.0" /><text fill="blue" x="0.0" y="0.0">
</text><text fill="blue" x="0.0" y="0.0">UNIT</text><text fill="blue" x="0.0" y="0.0" /><text fill="blue" x="0.0" y="0.0">
</text><text fill="blue" x="0.0" y="0.0">UNIT OF</text><text fill="blue" x="0.0" y="0.0" /><text fill="blue" x="0.0" y="0.0">
</text><text fill="blue" x="0.0" y="0.0"> VENDOR PART ID #</text><text fill="blue" x="0.0" y="0.0" /><text fill="blue" x="0.0" y="0.0">
</text><text fill="blue" x="0.0" y="0.0">AMOUNT</text><text fill="blue" x="0.0" y="0.0" /><text fill="blue" x="0.0" y="0.0">
</text><text fill="blue" x="0.0" y="0.0"> PART ID #</text><text fill="blue" x="0.0" y="0.0" /><text fill="blue" x="0.0" y="0.0">
</text><text fill="blue" x="0.0" y="0.0">QUANTITY</text><text fill="blue" x="0.0" y="0.0" /><text fill="blue" x="0.0" y="0.0">
</text><text fill="blue" x="0.0" y="0.0">MEASURE</text><text fill="blue" x="0.0" y="0.0" /><text fill="blue" x="0.0" y="0.0">
</text><text fill="blue" x="0.0" y="0.0"> PRICE</text><text fill="blue" x="0.0" y="0.0" /><text fill="blue" x="0.0" y="0.0">
</text><text fill="blue" x="0.0" y="0.0">ITEM</text><text fill="blue" x="0.0" y="0.0" /><text fill="blue" x="0.0" y="0.0">
</text><text fill="blue" x="0.0" y="0.0">HH08MD</text><text fill="blue" x="0.0" y="0.0" /><text fill="blue" x="0.0" y="0.0">
</text><text fill="blue" x="0.0" y="0.0">1</text><text fill="blue" x="0.0" y="0.0" /><text fill="blue" x="0.0" y="0.0">
</text><text fill="blue" x="0.0" y="0.0">$935.00</text><text fill="blue" x="0.0" y="0.0" /><text fill="blue" x="0.0" y="0.0">
</text><text fill="blue" x="0.0" y="0.0">935.00</text><text fill="blue" x="0.0" y="0.0" /><text fill="blue" x="0.0" y="0.0">
</text><text fill="blue" x="0.0" y="0.0">1.00</text><text fill="blue" x="0.0" y="0.0" /><text fill="blue" x="0.0" y="0.0">
</text><text fill="blue" x="0.0" y="0.0">HOPPER,1/2 CU YD</text><text fill="blue" x="0.0" y="0.0" /><text fill="blue" x="0.0" y="0.0">
</text><text fill="blue" x="0.0" y="0.0">SELF-DUMPING MD DUTY</text><text fill="blue" x="0.0" y="0.0" /><text fill="blue" x="0.0" y="0.0">
</text><text fill="blue" x="0.0" y="0.0">4000#CAP</text><text fill="blue" x="0.0" y="0.0" /><text fill="blue" x="0.0" y="0.0">
</text><text fill="blue" x="0.0" y="0.0">REQUESTOR:</text><text fill="blue" x="0.0" y="0.0" /><text fill="blue" x="0.0" y="0.0">
</text><text fill="blue" x="0.0" y="0.0">JOHN CALVES</text><text fill="blue" x="0.0" y="0.0" /><text fill="blue" x="0.0" y="0.0">
</text><text fill="blue" x="0.0" y="0.0">LINE ITEM DELIVERY DATE:</text><text fill="blue" x="0.0" y="0.0" /><text fill="blue" x="0.0" y="0.0">
</text><text fill="blue" x="0.0" y="0.0">10/28/21</text><text fill="blue" x="0.0" y="0.0" /><text fill="blue" x="0.0" y="0.0">
</text><text fill="blue" x="0.0" y="0.0">SC4-2-SET</text><text fill="blue" x="0.0" y="0.0" /><text fill="blue" x="0.0" y="0.0">
</text><text fill="blue" x="0.0" y="0.0">2</text><text fill="blue" x="0.0" y="0.0" /><text fill="blue" x="0.0" y="0.0">
</text><text fill="blue" x="0.0" y="0.0">$159.38</text><text fill="blue" x="0.0" y="0.0" /><text fill="blue" x="0.0" y="0.0">
</text><text fill="blue" x="0.0" y="0.0">159.38</text><text fill="blue" x="0.0" y="0.0" /><text fill="blue" x="0.0" y="0.0">
</text><text fill="blue" x="0.0" y="0.0">1.00</text><text fill="blue" x="0.0" y="0.0" /><text fill="blue" x="0.0" y="0.0">
</text><text fill="blue" x="0.0" y="0.0">CASTERS, 4" STEEL,PAINT,GRAY</text><text fill="blue" x="0.0" y="0.0" /><text fill="blue" x="0.0" y="0.0">
</text><text fill="blue" x="0.0" y="0.0">REQUESTOR:</text><text fill="blue" x="0.0" y="0.0" /><text fill="blue" x="0.0" y="0.0">
</text><text fill="blue" x="0.0" y="0.0">JOHN CALVES</text><text fill="blue" x="0.0" y="0.0" /><text fill="blue" x="0.0" y="0.0">
</text><text fill="blue" x="0.0" y="0.0">LINE ITEM DELIVERY DATE:</text><text fill="blue" x="0.0" y="0.0" /><text fill="blue" x="0.0" y="0.0">
</text><text fill="blue" x="0.0" y="0.0">10/28/21</text><text fill="blue" x="0.0" y="0.0" /><text fill="blue" x="0.0" y="0.0">
</text><text fill="blue" x="0.0" y="0.0">TOTAL</text><text fill="blue" x="0.0" y="0.0" /><text fill="blue" x="0.0" y="0.0">
</text><text fill="blue" x="0.0" y="0.0">$1,094.38</text><text fill="blue" x="0.0" y="0.0" /><text fill="blue" x="0.0" y="0.0">
</text><text fill="blue" x="0.0" y="0.0">** PLEASE FAX OR E-MAIL CONFIRMATION OF THIS ORDER  - THANK YOU **</text><text fill="blue" x="0.0" y="0.0" /><text fill="blue" x="0.0" y="0.0">
</text><text fill="blue" x="0.0" y="0.0">Print Date:</text><text fill="blue" x="0.0" y="0.0" /><text fill="blue" x="0.0" y="0.0">
</text><text fill="blue" x="0.0" y="0.0">10/19/2021</text><text fill="blue" x="0.0" y="0.0" /><text fill="blue" x="0.0" y="0.0">
</text><text fill="blue" x="0.0" y="0.0">11:52:57 AM</text><text fill="blue" x="0.0" y="0.0" /><text fill="blue" x="0.0" y="0.0">
</text><text fill="blue" x="0.0" y="0.0">1</text><text fill="blue" x="0.0" y="0.0" /><text fill="blue" x="0.0" y="0.0">
</text><text fill="blue" x="0.0" y="0.0">Page</text><text fill="blue" x="0.0" y="0.0" /><text fill="blue" x="0.0" y="0.0">
</text><text fill="blue" x="0.0" y="0.0">Revision Date:</text><text fill="blue" x="0.0" y="0.0" /><text fill="blue" x="0.0" y="0.0">
</text><text fill="blue" x="0.0" y="0.0">PO Revision:</text><text fill="blue" x="0.0" y="0.0" /><text fill="blue" x="0.0" y="0.0">
</text><text fill="blue" x="0.0" y="0.0">Rev. K - Release Date: 03/11/2019</text><text fill="blue" x="0.0" y="0.0" /><text fill="blue" x="0.0" y="0.0">
</text><text fill="blue" x="0.0" y="0.0">8.40022-Purchase Order Confirmation</text></svg>