<?xml version="1.0" encoding="utf-8" ?>
<svg baseProfile="tiny" height="100%" version="1.2" width="100%" xmlns="http://www.w3.org/2000/svg" xmlns:ev="http://www.w3.org/2001/xml-events" xmlns:xlink="http://www.w3.org/1999/xlink"><defs /><rect fill-opacity="0.05" height="0.0" stroke="red" width="510.25" x="42.5" y="691.65" /><rect fill-opacity="0.05" height="0.0" stroke="red" width="510.25" x="42.5" y="558.4" /><rect fill-opacity="0.05" height="0.0" stroke="red" width="510.25" x="42.5" y="467.7" /><text fill="blue" x="0.0" y="0.0" /><text fill="blue" x="0.0" y="0.0">Global Negotiator</text><text fill="blue" x="0.0" y="0.0" /><text fill="blue" x="0.0" y="0.0"> :</text><text fill="blue" x="0.0" y="0.0" /><text fill="blue" x="0.0" y="0.0">TOLOSA Angie                  </text><text fill="blue" x="0.0" y="0.0" /><text fill="blue" x="0.0" y="0.0">Local Purchaser</text><text fill="blue" x="0.0" y="0.0" /><text fill="blue" x="0.0" y="0.0"> :</text><text fill="blue" x="0.0" y="0.0" /><text fill="blue" x="0.0" y="0.0">TORRES Alejandra              </text><text fill="blue" x="0.0" y="0.0" /><text fill="blue" x="0.0" y="0.0">
</text><text fill="blue" x="0.0" y="0.0">Telephone</text><text fill="blue" x="0.0" y="0.0" /><text fill="blue" x="0.0" y="0.0"> :</text><text fill="blue" x="0.0" y="0.0" /><text fill="blue" x="0.0" y="0.0">19792167216      </text><text fill="blue" x="0.0" y="0.0" /><text fill="blue" x="0.0" y="0.0">Telephone</text><text fill="blue" x="0.0" y="0.0" /><text fill="blue" x="0.0" y="0.0"> :</text><text fill="blue" x="0.0" y="0.0" /><text fill="blue" x="0.0" y="0.0">9793235445       </text><text fill="blue" x="0.0" y="0.0" /><text fill="blue" x="0.0" y="0.0">
</text><text fill="blue" x="0.0" y="0.0">Fax</text><text fill="blue" x="0.0" y="0.0" /><text fill="blue" x="0.0" y="0.0"> :</text><text fill="blue" x="0.0" y="0.0" /><text fill="blue" x="0.0" y="0.0">19792167216      </text><text fill="blue" x="0.0" y="0.0" /><text fill="blue" x="0.0" y="0.0">Fax</text><text fill="blue" x="0.0" y="0.0" /><text fill="blue" x="0.0" y="0.0"> :</text><text fill="blue" x="0.0" y="0.0" /><text fill="blue" x="0.0" y="0.0">9793235445       </text><text fill="blue" x="0.0" y="0.0" /><text fill="blue" x="0.0" y="0.0">
</text><text fill="blue" x="0.0" y="0.0">e-mail</text><text fill="blue" x="0.0" y="0.0" /><text fill="blue" x="0.0" y="0.0"> :</text><text fill="blue" x="0.0" y="0.0" /><text fill="blue" x="0.0" y="0.0">ATOLOSA@exiros.com</text><text fill="blue" x="0.0" y="0.0" /><text fill="blue" x="0.0" y="0.0"> e-mail</text><text fill="blue" x="0.0" y="0.0" /><text fill="blue" x="0.0" y="0.0"> :</text><text fill="blue" x="0.0" y="0.0" /><text fill="blue" x="0.0" y="0.0">C.ATSALD@exiros.com</text><text fill="blue" x="0.0" y="0.0" /><text fill="blue" x="0.0" y="0.0">
</text><text fill="blue" x="0.0" y="0.0">______________________________________________________________________________________________________________________________</text><text fill="blue" x="0.0" y="0.0" /><text fill="blue" x="0.0" y="0.0">
</text><text fill="blue" x="0.0" y="0.0">In accordance to the conditions stated in this document, the following items are hereby requested:</text><text fill="blue" x="0.0" y="0.0" /><text fill="blue" x="0.0" y="0.0">_____________________________________________________________________________________________________________________________</text><text fill="blue" x="0.0" y="0.0" /><text fill="blue" x="0.0" y="0.0">
</text><text fill="blue" x="0.0" y="0.0">Conroe Mill FP/SF</text><text fill="blue" x="0.0" y="0.0" /><text fill="blue" x="0.0" y="0.0">
</text><text fill="blue" x="0.0" y="0.0">699 FM 3083</text><text fill="blue" x="0.0" y="0.0" /><text fill="blue" x="0.0" y="0.0">
</text><text fill="blue" x="0.0" y="0.0">Delivery Address</text><text fill="blue" x="0.0" y="0.0" /><text fill="blue" x="0.0" y="0.0"> (77301-6435)CONROE</text><text fill="blue" x="0.0" y="0.0" /><text fill="blue" x="0.0" y="0.0">
</text><text fill="blue" x="0.0" y="0.0">Texas</text><text fill="blue" x="0.0" y="0.0" /><text fill="blue" x="0.0" y="0.0">
</text><text fill="blue" x="0.0" y="0.0">USA</text><text fill="blue" x="0.0" y="0.0" /><text fill="blue" x="0.0" y="0.0">
</text><text fill="blue" x="0.0" y="0.0">_____________________________________________________________________________________________________________________________</text><text fill="blue" x="0.0" y="0.0" /><text fill="blue" x="0.0" y="0.0">
</text><text fill="blue" x="0.0" y="0.0">Item N</text><text fill="blue" x="0.0" y="0.0">°</text><text fill="blue" x="0.0" y="0.0" /><text fill="blue" x="0.0" y="0.0"> </text><text fill="blue" x="0.0" y="0.0">Material Product Code</text><text fill="blue" x="0.0" y="0.0" /><text fill="blue" x="0.0" y="0.0"> Delivery Date</text><text fill="blue" x="0.0" y="0.0" /><text fill="blue" x="0.0" y="0.0"> UM</text><text fill="blue" x="0.0" y="0.0" /><text fill="blue" x="0.0" y="0.0"> Quantity</text><text fill="blue" x="0.0" y="0.0" /><text fill="blue" x="0.0" y="0.0"> Unit Price</text><text fill="blue" x="0.0" y="0.0" /><text fill="blue" x="0.0" y="0.0"> Order Price Unit</text><text fill="blue" x="0.0" y="0.0" /><text fill="blue" x="0.0" y="0.0"> Price</text><text fill="blue" x="0.0" y="0.0" /><text fill="blue" x="0.0" y="0.0">
</text><text fill="blue" x="0.0" y="0.0">_____________________________________________________________________________________________________________________________</text><text fill="blue" x="0.0" y="0.0" /><text fill="blue" x="0.0" y="0.0">
</text><text fill="blue" x="0.0" y="0.0">00001</text><text fill="blue" x="0.0" y="0.0" /><text fill="blue" x="0.0" y="0.0"> 53004278</text><text fill="blue" x="0.0" y="0.0" /><text fill="blue" x="0.0" y="0.0"> 11/02/2021</text><text fill="blue" x="0.0" y="0.0" /><text fill="blue" x="0.0" y="0.0"> Carton</text><text fill="blue" x="0.0" y="0.0" /><text fill="blue" x="0.0" y="0.0">                 4</text><text fill="blue" x="0.0" y="0.0" /><text fill="blue" x="0.0" y="0.0">          14.75</text><text fill="blue" x="0.0" y="0.0" /><text fill="blue" x="0.0" y="0.0"> Carton</text><text fill="blue" x="0.0" y="0.0" /><text fill="blue" x="0.0" y="0.0">            59.00</text><text fill="blue" x="0.0" y="0.0" /><text fill="blue" x="0.0" y="0.0">
</text><text fill="blue" x="0.0" y="0.0">Contract/Item: 6700279013 / 00001</text><text fill="blue" x="0.0" y="0.0" /><text fill="blue" x="0.0" y="0.0">
</text><text fill="blue" x="0.0" y="0.0">Description:</text><text fill="blue" x="0.0" y="0.0" /><text fill="blue" x="0.0" y="0.0">
</text><text fill="blue" x="0.0" y="0.0">TERRY CLOTH WHITE 32-3-0015</text><text fill="blue" x="0.0" y="0.0" /><text fill="blue" x="0.0" y="0.0">
</text><text fill="blue" x="0.0" y="0.0">RAG TYPE: CLOTH RAG   NEW OR RECYCLED:  RECYCLED   COLOR:  WHITE   PREWASHED PRESENTATION: 10 LB BOX; MANUFACTURER 1:</text><text fill="blue" x="0.0" y="0.0" /><text fill="blue" x="0.0" y="0.0">
</text><text fill="blue" x="0.0" y="0.0">NAVASOTA; PART-NO 1: 32-3-0015</text><text fill="blue" x="0.0" y="0.0" /><text fill="blue" x="0.0" y="0.0">
</text><text fill="blue" x="0.0" y="0.0">_____________________________________________________________________________________________________________________________</text><text fill="blue" x="0.0" y="0.0" /><text fill="blue" x="0.0" y="0.0">
</text><text fill="blue" x="0.0" y="0.0">Grand Total                     59.00  USD</text><text fill="blue" x="0.0" y="0.0" /><text fill="blue" x="0.0" y="0.0">
</text><text fill="blue" x="0.0" y="0.0">SPECIAL TERMS (CONT.)</text><text fill="blue" x="0.0" y="0.0" /><text fill="blue" x="0.0" y="0.0">
</text><text fill="blue" x="0.0" y="0.0">Terms and Conditions that apply for this transaction are those agreed in the Agreement indicated in this purchase document.</text><text fill="blue" x="0.0" y="0.0" /><text fill="blue" x="0.0" y="0.0">
</text><text fill="blue" x="0.0" y="0.0">By accepting this Order the supplier hereby is accepting to observe the integrity and transparency guidelines reflected in the Tenaris</text><text fill="blue" x="0.0" y="0.0" /><text fill="blue" x="0.0" y="0.0">
</text><text fill="blue" x="0.0" y="0.0">Code of Conduct for Suppliers (such document is available at http://www.tenaris.com/en/AboutUs/CodeofConduct.aspx).</text><text fill="blue" x="0.0" y="0.0" /><text fill="blue" x="0.0" y="0.0">
</text><text fill="blue" x="0.0" y="0.0">Dear Vendor/Users:</text><text fill="blue" x="0.0" y="0.0" /><text fill="blue" x="0.0" y="0.0">
</text><text fill="blue" x="0.0" y="0.0">In order to reduce and/or avoid late payments, below you will find an invoicing guide, for you to follow, that will help us to process and</text><text fill="blue" x="0.0" y="0.0" /><text fill="blue" x="0.0" y="0.0">
</text><text fill="blue" x="0.0" y="0.0">pay the invoices in a timely manner</text><text fill="blue" x="0.0" y="0.0" /><text fill="blue" x="0.0" y="0.0">
</text><text fill="blue" x="0.0" y="0.0">INVOICES</text><text fill="blue" x="0.0" y="0.0" /><text fill="blue" x="0.0" y="0.0">Tenaris Bay City, Inc.</text><text fill="blue" x="0.0" y="0.0" /><text fill="blue" x="0.0" y="0.0">
</text><text fill="blue" x="0.0" y="0.0">Central Offices</text><text fill="blue" x="0.0" y="0.0" /><text fill="blue" x="0.0" y="0.0">
</text><text fill="blue" x="0.0" y="0.0">2200 West Loop South, Ste. 800</text><text fill="blue" x="0.0" y="0.0" /><text fill="blue" x="0.0" y="0.0">
</text><text fill="blue" x="0.0" y="0.0">(77027) Houston</text><text fill="blue" x="0.0" y="0.0" /><text fill="blue" x="0.0" y="0.0">
</text><text fill="blue" x="0.0" y="0.0">Texas</text><text fill="blue" x="0.0" y="0.0" /><text fill="blue" x="0.0" y="0.0">
</text><text fill="blue" x="0.0" y="0.0">USA</text><text fill="blue" x="0.0" y="0.0" /><text fill="blue" x="0.0" y="0.0">
</text><text fill="blue" x="0.0" y="0.0">Tel: 713-767-4400</text><text fill="blue" x="0.0" y="0.0" /><text fill="blue" x="0.0" y="0.0">
</text><text fill="blue" x="0.0" y="0.0">Fax: </text><text fill="blue" x="0.0" y="0.0" /><text fill="blue" x="0.0" y="0.0">
</text><text fill="blue" x="0.0" y="0.0">Commercial invoices must be uploaded via</text><text fill="blue" x="0.0" y="0.0" /><text fill="blue" x="0.0" y="0.0">
</text><text fill="blue" x="0.0" y="0.0">supplier extranet at www.exiros.com.</text><text fill="blue" x="0.0" y="0.0" /><text fill="blue" x="0.0" y="0.0">
</text><text fill="blue" x="0.0" y="0.0">We prefer to pay via ACH. Please contact</text><text fill="blue" x="0.0" y="0.0" /><text fill="blue" x="0.0" y="0.0">
</text><text fill="blue" x="0.0" y="0.0">our Accounts Payable Department for getting</text><text fill="blue" x="0.0" y="0.0" /><text fill="blue" x="0.0" y="0.0">
</text><text fill="blue" x="0.0" y="0.0">your account set up if needed.</text><text fill="blue" x="0.0" y="0.0" /><text fill="blue" x="0.0" y="0.0">
</text><text fill="blue" x="0.0" y="0.0">NAVASOTA INDUSTRIAL SUPPLY LTD</text><text fill="blue" x="0.0" y="0.0" /><text fill="blue" x="0.0" y="0.0">
</text><text fill="blue" x="0.0" y="0.0">9527 FM 379</text><text fill="blue" x="0.0" y="0.0" /><text fill="blue" x="0.0" y="0.0">
</text><text fill="blue" x="0.0" y="0.0">(77868)NAVASOTA                           </text><text fill="blue" x="0.0" y="0.0" /><text fill="blue" x="0.0" y="0.0">
</text><text fill="blue" x="0.0" y="0.0">Texas</text><text fill="blue" x="0.0" y="0.0" /><text fill="blue" x="0.0" y="0.0">
</text><text fill="blue" x="0.0" y="0.0">USA</text><text fill="blue" x="0.0" y="0.0" /><text fill="blue" x="0.0" y="0.0">
</text><text fill="blue" x="0.0" y="0.0">Care of</text><text fill="blue" x="0.0" y="0.0" /><text fill="blue" x="0.0" y="0.0"> :</text><text fill="blue" x="0.0" y="0.0" /><text fill="blue" x="0.0" y="0.0">                              </text><text fill="blue" x="0.0" y="0.0" /><text fill="blue" x="0.0" y="0.0">
</text><text fill="blue" x="0.0" y="0.0">Telephone</text><text fill="blue" x="0.0" y="0.0" /><text fill="blue" x="0.0" y="0.0"> :</text><text fill="blue" x="0.0" y="0.0" /><text fill="blue" x="0.0" y="0.0">9368257368       </text><text fill="blue" x="0.0" y="0.0" /><text fill="blue" x="0.0" y="0.0">
</text><text fill="blue" x="0.0" y="0.0">Fax</text><text fill="blue" x="0.0" y="0.0" /><text fill="blue" x="0.0" y="0.0"> :</text><text fill="blue" x="0.0" y="0.0" /><text fill="blue" x="0.0" y="0.0">                 </text><text fill="blue" x="0.0" y="0.0" /><text fill="blue" x="0.0" y="0.0">
</text><text fill="blue" x="0.0" y="0.0">Quotation</text><text fill="blue" x="0.0" y="0.0" /><text fill="blue" x="0.0" y="0.0"> :</text><text fill="blue" x="0.0" y="0.0" /><text fill="blue" x="0.0" y="0.0">          </text><text fill="blue" x="0.0" y="0.0" /><text fill="blue" x="0.0" y="0.0">
</text><text fill="blue" x="0.0" y="0.0">e-mail</text><text fill="blue" x="0.0" y="0.0" /><text fill="blue" x="0.0" y="0.0"> :</text><text fill="blue" x="0.0" y="0.0" /><text fill="blue" x="0.0" y="0.0">ORDERS@NISTX.COM</text><text fill="blue" x="0.0" y="0.0" /><text fill="blue" x="34.0" y="722.0" /><text fill="blue" x="34.0" y="722.0">
</text><text fill="blue" x="34.0" y="722.0" /><text fill="blue" x="0.0" y="0.0">Purchase Order Number</text><text fill="blue" x="0.0" y="0.0" /><text fill="blue" x="0.0" y="0.0">
</text><text fill="blue" x="0.0" y="0.0">3703775385</text><text fill="blue" x="0.0" y="0.0" /><text fill="blue" x="0.0" y="0.0">
</text><text fill="blue" x="0.0" y="0.0">Document Date</text><text fill="blue" x="0.0" y="0.0" /><text fill="blue" x="0.0" y="0.0"> :</text><text fill="blue" x="0.0" y="0.0" /><text fill="blue" x="0.0" y="0.0">10/19/2021</text><text fill="blue" x="0.0" y="0.0" /><text fill="blue" x="0.0" y="0.0">
</text><text fill="blue" x="0.0" y="0.0">Last Modified On</text><text fill="blue" x="0.0" y="0.0" /><text fill="blue" x="0.0" y="0.0"> :</text><text fill="blue" x="0.0" y="0.0" /><text fill="blue" x="0.0" y="0.0">10/19/2021  15:04:56</text><text fill="blue" x="0.0" y="0.0" /><text fill="blue" x="0.0" y="0.0">
</text><text fill="blue" x="0.0" y="0.0">Total</text><text fill="blue" x="0.0" y="0.0" /><text fill="blue" x="0.0" y="0.0"> :</text><text fill="blue" x="0.0" y="0.0" /><text fill="blue" x="0.0" y="0.0">USD                59.00 </text><text fill="blue" x="0.0" y="0.0" /><text fill="blue" x="0.0" y="0.0">
</text><text fill="blue" x="0.0" y="0.0">Vendor</text><text fill="blue" x="0.0" y="0.0" /><text fill="blue" x="0.0" y="0.0"> :</text><text fill="blue" x="0.0" y="0.0" /><text fill="blue" x="0.0" y="0.0">107023</text><text fill="blue" x="0.0" y="0.0" /><text fill="blue" x="0.0" y="0.0">
</text><text fill="blue" x="0.0" y="0.0">Fax</text><text fill="blue" x="0.0" y="0.0" /><text fill="blue" x="0.0" y="0.0"> :</text><text fill="blue" x="0.0" y="0.0" /><text fill="blue" x="0.0" y="0.0">
</text><text fill="blue" x="0.0" y="0.0">Payment Terms</text><text fill="blue" x="0.0" y="0.0" /><text fill="blue" x="0.0" y="0.0"> :</text><text fill="blue" x="0.0" y="0.0" /><text fill="blue" x="0.0" y="0.0">Payment in 30 days receipt of invoice</text><text fill="blue" x="0.0" y="0.0" /><text fill="blue" x="0.0" y="0.0">
</text><text fill="blue" x="0.0" y="0.0">Incoterm</text><text fill="blue" x="0.0" y="0.0" /><text fill="blue" x="0.0" y="0.0"> :</text><text fill="blue" x="0.0" y="0.0" /><text fill="blue" x="0.0" y="0.0">FOB PP&amp;A Tenaris</text><text fill="blue" x="0.0" y="0.0" /><text fill="blue" x="0.0" y="0.0">
</text><text fill="blue" x="0.0" y="0.0">Transport</text><text fill="blue" x="0.0" y="0.0" /><text fill="blue" x="0.0" y="0.0"> :</text><text fill="blue" x="0.0" y="0.0" /><text fill="blue" x="0.0" y="0.0">Page 1/   2</text></svg>