<?xml version="1.0" encoding="utf-8" ?>
<svg baseProfile="tiny" height="100%" version="1.2" width="100%" xmlns="http://www.w3.org/2000/svg" xmlns:ev="http://www.w3.org/2001/xml-events" xmlns:xlink="http://www.w3.org/1999/xlink"><defs /><text fill="blue" x="0.0" y="0.0" /><rect fill-opacity="0.05" height="-751.35" stroke="red" width="590.75" x="12.6" y="-4.95" /><rect fill-opacity="0.05" height="-12" stroke="red" width="552" x="24.6" y="-295.7" /><rect fill-opacity="0.05" height="-22.95" stroke="red" width="245" x="25.1" y="-710.3" /><text fill="blue" x="0.0" y="792.0" /><text fill="blue" x="0.0" y="792.0">FLOWCO PRODUCTION SOLUTIONS, LLC
</text><text fill="blue" x="0.0" y="792.0">PO Box 690166
</text><text fill="blue" x="0.0" y="792.0">Houston, TX  77369
</text><text fill="blue" x="0.0" y="792.0">Phone: 281-528-6298 
</text><text fill="blue" x="0.0" y="792.0">Email: ap@flowcosolutions.com
</text><text fill="blue" x="0.0" y="792.0">Website : www.flowcosolutions.com</text><text fill="blue" x="0.0" y="792.0" /><text fill="blue" x="18.6" y="727.05" /><text fill="blue" x="18.6" y="727.05">
</text><rect fill-opacity="0.05" height="-21" stroke="red" width="216" x="360.6" y="-16.95" /><text fill="blue" x="18.6" y="727.05" /><text fill="blue" x="0.0" y="792.0">PURCHASE ORDER </text><text fill="blue" x="0.0" y="792.0" /><text fill="blue" x="0.0" y="792.0">
</text><text fill="blue" x="0.0" y="792.0">Order Due Date Ship To
</text><text fill="blue" x="0.0" y="792.0">Invoice Terms BuyerSupplier Supplier Code - 1002044
</text><text fill="blue" x="0.0" y="792.0">NAVASOTA INDUSTRIAL SUPPLY , LTD
</text><text fill="blue" x="0.0" y="792.0">9527 FM 379
</text><text fill="blue" x="0.0" y="792.0">NAVASOTA
</text><text fill="blue" x="0.0" y="792.0">TX 
</text><text fill="blue" x="0.0" y="792.0">77868</text><text fill="blue" x="0.0" y="792.0">:
</text><text fill="blue" x="0.0" y="792.0">:
</text><text fill="blue" x="0.0" y="792.0">::
</text><text fill="blue" x="0.0" y="792.0">:</text><text fill="blue" x="0.0" y="792.0">HOUSTON - THEALL MFG
</text><text fill="blue" x="0.0" y="792.0">6825 THEALL ROAD , STE. B
</text><text fill="blue" x="0.0" y="792.0">HOUSTON
</text><text fill="blue" x="0.0" y="792.0">TX
</text><text fill="blue" x="0.0" y="792.0">UNITED STATES
</text><text fill="blue" x="0.0" y="792.0">77066-10/21/21
</text><text fill="blue" x="0.0" y="792.0">NET 45 DAYSA03 - HOUSTON - THEALL MFG .PO Type </text><text fill="blue" x="0.0" y="792.0">:</text><text fill="blue" x="0.0" y="792.0">Local</text><text fill="blue" x="0.0" y="792.0">PURCHASE ORDER No 35685
</text><text fill="blue" x="0.0" y="792.0">10/21/21 PURCHASE ORDER Date</text><text fill="blue" x="0.0" y="792.0">:
</text><text fill="blue" x="0.0" y="792.0">:
</text><text fill="blue" x="0.0" y="792.0">Unit of Measure Item Qty Stock code Description Unit price Gross amount
</text><text fill="blue" x="0.0" y="792.0">INSERT , DCMT 11 T3 08-PM 
</text><text fill="blue" x="0.0" y="792.0">4325229.40 11.47 EA 20 1
</text><text fill="blue" x="0.0" y="792.0">INSERT , 
</text><text fill="blue" x="0.0" y="792.0">266RL-16RD01A080E 1125727.80 24.26 EA 30 2
</text><text fill="blue" x="0.0" y="792.0">QD-NG-0300-0004-CM 1135 574.50 11.49 EA 50 3
</text><text fill="blue" x="0.0" y="792.0">Note:
</text><text fill="blue" x="0.0" y="792.0">***Text Box for Standard Messages ***
</text><text fill="blue" x="0.0" y="792.0">Name, Signature 
</text><text fill="blue" x="0.0" y="792.0">Total Invoice AmountTotal Misc ChargesTotal FreightTotal Gross 1531.70
</text><text fill="blue" x="0.0" y="792.0">0.00
</text><text fill="blue" x="0.0" y="792.0">0.00
</text><text fill="blue" x="0.0" y="792.0">1531.70</text><text fill="blue" x="0.0" y="792.0">:
</text><text fill="blue" x="0.0" y="792.0">:
</text><text fill="blue" x="0.0" y="792.0">:
</text><text fill="blue" x="0.0" y="792.0">:</text><text fill="blue" x="0.0" y="792.0">Total Tax </text><text fill="blue" x="0.0" y="792.0">: </text><text fill="blue" x="0.0" y="792.0">0.00
</text><text fill="blue" x="0.0" y="792.0">ShipInstrs:     
</text><text fill="blue" x="0.0" y="792.0">Page 1 of 1</text></svg>