<?xml version="1.0" encoding="utf-8" ?>
<svg baseProfile="tiny" height="100%" version="1.2" width="100%" xmlns="http://www.w3.org/2000/svg" xmlns:ev="http://www.w3.org/2001/xml-events" xmlns:xlink="http://www.w3.org/1999/xlink"><defs /><text fill="blue" x="0.0" y="0.0" /><text fill="blue" x="54.275" y="560.56" /><text fill="blue" x="54.275" y="560.56" /><text fill="blue" x="0.0" y="0.0">A Division of National Oilwell Varco, L.P.
</text><text fill="blue" x="0.0" y="0.0">L0320</text><text fill="blue" x="0.0" y="0.0">Standard Purchase Order </text><text fill="blue" x="0.0" y="0.0" /><text fill="blue" x="0.0" y="0.0">
</text><text fill="blue" x="0.0" y="0.0" /><text fill="blue" x="0.0" y="0.0" /><text fill="blue" x="0.0" y="0.0">Order-Release Number: </text><text fill="blue" x="0.0" y="0.0"> 2075111 </text><text fill="blue" x="0.0" y="0.0">Revision Number: </text><text fill="blue" x="0.0" y="0.0">0</text><rect fill-opacity="0.05" height="21.74" stroke="red" width="0.5" x="518.15" y="536.85" /><rect fill-opacity="0.05" height="38.9" stroke="red" width="0.5" x="752.15" y="536.85" /><rect fill-opacity="0.05" height="38.9" stroke="red" width="0.5" x="657.65" y="536.85" /><rect fill-opacity="0.05" height="38.9" stroke="red" width="0.5" x="252.65" y="536.85" /><rect fill-opacity="0.05" height="0.5" stroke="red" width="405.5" x="252.65" y="558.09" /><rect fill-opacity="0.05" height="0.5" stroke="red" width="500" x="252.65" y="575.25" /><rect fill-opacity="0.05" height="0.5" stroke="red" width="500" x="252.65" y="536.85" /><text fill="blue" x="0.0" y="0.0" /><text fill="blue" x="0.0" y="0.0">
</text><text fill="blue" x="0.0" y="0.0">Approved Date: </text><text fill="blue" x="0.0" y="0.0"> 30-MAR-2023
</text><text fill="blue" x="0.0" y="0.0">Revision Date: </text><text fill="blue" x="0.0" y="0.0"> </text><text fill="blue" x="0.0" y="0.0">Operating Unit: </text><text fill="blue" x="0.0" y="0.0"> US DSTEM </text><text fill="blue" x="0.0" y="0.0">Buyer: </text><text fill="blue" x="0.0" y="0.0">Abke,Donna
</text><text fill="blue" x="0.0" y="0.0">Buyer Phone: </text><text fill="blue" x="0.0" y="0.0"> +19368254432
</text><text fill="blue" x="0.0" y="0.0">Buyer Email: </text><text fill="blue" x="0.0" y="0.0"> Donna.Abke@nov.com
</text><text fill="blue" x="0.0" y="0.0">Supplier: </text><text fill="blue" x="0.0" y="0.0">429678
</text><text fill="blue" x="0.0" y="0.0">Navasota Industrial Supply Ltd
</text><text fill="blue" x="0.0" y="0.0">9527 FM 379
</text><text fill="blue" x="0.0" y="0.0">Navasota, TX,77868
</text><text fill="blue" x="0.0" y="0.0">United States</text><text fill="blue" x="0.0" y="0.0">Ship-to Location: </text><text fill="blue" x="0.0" y="0.0">US MAIN NAVASOTA
</text><text fill="blue" x="0.0" y="0.0">Miller Industrial Park #1
</text><text fill="blue" x="0.0" y="0.0">9475 FM 1227 Road
</text><text fill="blue" x="0.0" y="0.0">Navasota, TX  77868
</text><text fill="blue" x="0.0" y="0.0">United States 
</text><text fill="blue" x="0.0" y="0.0">Supplier Contact:
</text><text fill="blue" x="0.0" y="0.0">Supplier Contact Email:
</text><text fill="blue" x="0.0" y="0.0">Supplier Contact Phone: </text><text fill="blue" x="0.0" y="0.0">Blanket Orders
</text><text fill="blue" x="0.0" y="0.0">orders@nistx.com</text><text fill="blue" x="0.0" y="0.0">Invoice-to Location: </text><text fill="blue" x="0.0" y="0.0">US BILL-TO 101 NAVASOTA
</text><text fill="blue" x="0.0" y="0.0">GRANT PRIDECO, L.P.
</text><text fill="blue" x="0.0" y="0.0">P.O. Box 1310
</text><text fill="blue" x="0.0" y="0.0">Navasota, TX  77868 
</text><text fill="blue" x="0.0" y="0.0">United States 
</text><text fill="blue" x="0.0" y="0.0">E-mail DP-USA-
</text><text fill="blue" x="0.0" y="0.0">Navasotaaccountspayables@nov.com
</text><text fill="blue" x="0.0" y="0.0"> 
</text><text fill="blue" x="0.0" y="0.0">Inco Terms: </text><text fill="blue" x="0.0" y="0.0">Ex Works-All Modes </text><text fill="blue" x="0.0" y="0.0">Payment Terms: </text><text fill="blue" x="0.0" y="0.0">Net 90
</text><text fill="blue" x="0.0" y="0.0">Freight Method: </text><text fill="blue" x="0.0" y="0.0">Best Way </text><text fill="blue" x="0.0" y="0.0">Currency: </text><text fill="blue" x="0.0" y="0.0">USD
</text><text fill="blue" x="0.0" y="0.0">Freight Terms: </text><text fill="blue" x="0.0" y="0.0">Freight paid by buyer</text><rect fill-opacity="0.05" height="36.7" stroke="red" width="0.5" x="501.275" y="489.495" /><rect fill-opacity="0.05" height="36.7" stroke="red" width="0.5" x="37.825" y="489.495" /><rect fill-opacity="0.05" height="36.7" stroke="red" width="0.5" x="240.075" y="489.495" /><rect fill-opacity="0.05" height="36.7" stroke="red" width="0.5" x="753.325" y="489.495" /><rect fill-opacity="0.05" height="0.5" stroke="red" width="716" x="37.825" y="489.496" /><rect fill-opacity="0.05" height="0.5" stroke="red" width="716" x="37.825" y="525.696" /><text fill="blue" x="0.0" y="0.0" /><text fill="blue" x="0.0" y="0.0">
</text><text fill="blue" x="0.0" y="0.0">Notes: 
</text><text fill="blue" x="0.0" y="0.0">PER QUOTE 82675.  DELIVER TO ROY COLLINS.  DEPARMENT 5167  DRILL STEM FINSIHING</text><rect fill-opacity="0.05" height="12.4" stroke="red" width="58.3" x="36" y="200.946" /><text fill="blue" x="0.0" y="0.0" /><text fill="blue" x="0.0" y="0.0">
</text><text fill="blue" x="0.0" y="0.0">Line # </text><rect fill-opacity="0.05" height="12.4" stroke="red" width="132.75" x="94.3" y="200.946" /><text fill="blue" x="0.0" y="0.0" /><text fill="blue" x="0.0" y="0.0">Item Number</text><rect fill-opacity="0.05" height="12.4" stroke="red" width="99.6" x="227.05" y="200.946" /><text fill="blue" x="0.0" y="0.0" /><text fill="blue" x="0.0" y="0.0"> PUM</text><rect fill-opacity="0.05" height="12.4" stroke="red" width="87.1" x="326.65" y="200.946" /><text fill="blue" x="0.0" y="0.0" /><text fill="blue" x="0.0" y="0.0"> Qty PUM </text><rect fill-opacity="0.05" height="12.4" stroke="red" width="82.9" x="413.75" y="200.946" /><text fill="blue" x="0.0" y="0.0" /><text fill="blue" x="0.0" y="0.0">Price PUM</text><rect fill-opacity="0.05" height="12.4" stroke="red" width="90.1" x="496.65" y="200.946" /><text fill="blue" x="0.0" y="0.0" /><text fill="blue" x="0.0" y="0.0"> Line Total</text><rect fill-opacity="0.05" height="12.4" stroke="red" width="164.75" x="586.75" y="200.946" /><text fill="blue" x="0.0" y="0.0" /><text fill="blue" x="0.0" y="0.0"> Promised Date
</text><text fill="blue" x="0.0" y="0.0">9 Each 10.00 17.69 176.90 10-APR-2023</text><rect fill-opacity="0.05" height="12.4" stroke="red" width="715.5" x="36" y="172.396" /><text fill="blue" x="0.0" y="0.0" /><text fill="blue" x="0.0" y="0.0">
</text><text fill="blue" x="0.0" y="0.0">Description </text><rect fill-opacity="0.05" height="12.06" stroke="red" width="715.5" x="36" y="160.336" /><text fill="blue" x="0.0" y="0.0" /><text fill="blue" x="0.0" y="0.0">
</text><text fill="blue" x="0.0" y="0.0"> WHEEL WR 3 IN X .014 WR 1/4 IN SHFT 2000</text><rect fill-opacity="0.05" height="12.15" stroke="red" width="206.6" x="36" y="148.186" /><text fill="blue" x="0.0" y="0.0" /><text fill="blue" x="0.0" y="0.0">
</text><text fill="blue" x="0.0" y="0.0">Purchase Type:</text><rect fill-opacity="0.05" height="12.15" stroke="red" width="508.9" x="242.6" y="148.186" /><text fill="blue" x="0.0" y="0.0" /><text fill="blue" x="0.0" y="0.0"> </text><text fill="blue" x="0.0" y="0.0">Expense Catalog</text><rect fill-opacity="0.05" height="11.9" stroke="red" width="206.6" x="36" y="136.286" /><text fill="blue" x="0.0" y="0.0" /><text fill="blue" x="0.0" y="0.0">
</text><text fill="blue" x="0.0" y="0.0">Supplier Part Number:</text><rect fill-opacity="0.05" height="11.9" stroke="red" width="508.9" x="242.6" y="136.286" /><text fill="blue" x="0.0" y="0.0" /><text fill="blue" x="0.0" y="0.0"> </text><text fill="blue" x="0.0" y="0.0">10-1-17979</text><rect fill-opacity="0.05" height="0" stroke="red" width="715.5" x="36" y="136.286" /><text fill="blue" x="0.0" y="0.0" /><text fill="blue" x="0.0" y="0.0">
</text><text fill="blue" x="0.0" y="0.0">Taxable Amount: </text><text fill="blue" x="0.0" y="0.0">11.94
</text><text fill="blue" x="0.0" y="0.0">Ship-to Organization: </text><text fill="blue" x="0.0" y="0.0">101 US Navasota Plant
</text><text fill="blue" x="0.0" y="0.0">Requisition Number-Line: </text><text fill="blue" x="0.0" y="0.0">81768-9
</text><text fill="blue" x="0.0" y="0.0">Deliver to Person-Deliver to Location:  </text><text fill="blue" x="0.0" y="0.0">Collins, Roy-US TX Navasota NAV 9475 FM 1227 Miller Industrial Park 1
</text><text fill="blue" x="0.0" y="0.0">Purchase Order Lines Total: </text><text fill="blue" x="0.0" y="0.0">176.90 USD</text><rect fill-opacity="0.05" height="29.049" stroke="red" width="0.5" x="326.4" y="184.546" /><rect fill-opacity="0.05" height="29.049" stroke="red" width="0.5" x="413.5" y="184.546" /><rect fill-opacity="0.05" height="29.049" stroke="red" width="0.5" x="94.05" y="184.546" /><rect fill-opacity="0.05" height="29.049" stroke="red" width="0.5" x="226.8" y="184.546" /><rect fill-opacity="0.05" height="53.51" stroke="red" width="0.5" x="35.75" y="160.086" /><rect fill-opacity="0.05" height="15.28" stroke="red" width="0.5" x="265.25" y="61.655" /><rect fill-opacity="0.05" height="15.28" stroke="red" width="0.5" x="755.75" y="61.655" /><rect fill-opacity="0.05" height="29.049" stroke="red" width="0.5" x="496.4" y="184.546" /><rect fill-opacity="0.05" height="53.51" stroke="red" width="0.5" x="751.25" y="160.086" /><rect fill-opacity="0.05" height="15.28" stroke="red" width="0.5" x="607.25" y="61.655" /><rect fill-opacity="0.05" height="29.049" stroke="red" width="0.5" x="586.5" y="184.546" /><rect fill-opacity="0.05" height="0.5" stroke="red" width="716" x="35.75" y="172.146" /><rect fill-opacity="0.05" height="0.5" stroke="red" width="716" x="35.75" y="184.545" /><rect fill-opacity="0.05" height="0.5" stroke="red" width="491" x="265.25" y="76.435" /><rect fill-opacity="0.05" height="0.5" stroke="red" width="491" x="265.25" y="61.656" /><rect fill-opacity="0.05" height="0.5" stroke="red" width="716" x="35.75" y="200.696" /><rect fill-opacity="0.05" height="0.5" stroke="red" width="716" x="35.75" y="213.096" /><rect fill-opacity="0.05" height="0.5" stroke="red" width="716" x="35.75" y="160.086" /></svg>